<svg width="20" height="20" viewBox="0 0 20 20" fill="none" xmlns="http://www.w3.org/2000/svg">
<path d="M10 20C15.5228 20 20 15.5228 20 10C20 4.47715 15.5228 0 10 0C4.47715 0 0 4.47715 0 10C0 15.5228 4.47715 20 10 20Z" fill="#7A57DD"/>
<path d="M9.99783 3.33276V8.26L14.1621 10.1207L9.99783 3.33276Z" fill="white" fill-opacity="0.602"/>
<path d="M9.99798 3.33276L5.83374 10.1228L10.0001 8.26208V3.33276H9.99798Z" fill="white"/>
<path d="M9.99783 13.3161V16.6633L14.1662 10.8982L9.99783 13.3161Z" fill="white" fill-opacity="0.602"/>
<path d="M9.99798 16.6633V13.3161L5.83374 10.8982L9.99798 16.6633Z" fill="white"/>
<path d="M9.99783 12.5405L14.1621 10.1227L9.99783 8.26196V12.5405Z" fill="white" fill-opacity="0.2"/>
<path d="M5.83374 10.1227L10.0001 12.5405V8.26196L5.83374 10.1227Z" fill="white" fill-opacity="0.602"/>
</svg>
