<svg width="21" height="21" viewBox="0 0 21 21" fill="none" xmlns="http://www.w3.org/2000/svg">
<g clip-path="url(#clip0_363_1508)">
<path d="M3.98999 4.75V2.22C3.98999 1.27 4.75999 0.5 5.70999 0.5C6.65999 0.5 7.42999 1.27 7.42999 2.22V4.75" stroke="#9295A5" stroke-miterlimit="10"/>
<path d="M4.41 20.31C6.56943 20.31 8.32 18.5594 8.32 16.4C8.32 14.2406 6.56943 12.49 4.41 12.49C2.25057 12.49 0.5 14.2406 0.5 16.4C0.5 18.5594 2.25057 20.31 4.41 20.31Z" stroke="#9295A5" stroke-miterlimit="10"/>
<path d="M20.5 16.36V8.25001C20.5 6.32001 18.94 4.76001 17.01 4.76001H3.99C2.06 4.76001 0.5 6.32001 0.5 8.25001V16.36" stroke="#9295A5" stroke-miterlimit="10"/>
<path d="M12.6901 16.36V12.31C12.6901 11.1 11.7101 10.12 10.5001 10.12C9.29006 10.12 8.31006 11.1 8.31006 12.31V16.36" stroke="#9295A5" stroke-miterlimit="10"/>
<path d="M17.0101 4.75V2.22C17.0101 1.27 16.2401 0.5 15.2901 0.5C14.3401 0.5 13.5701 1.27 13.5701 2.22V4.75" stroke="#9295A5" stroke-miterlimit="10"/>
<path d="M16.5899 20.31C18.7494 20.31 20.4999 18.5594 20.4999 16.4C20.4999 14.2406 18.7494 12.49 16.5899 12.49C14.4305 12.49 12.6799 14.2406 12.6799 16.4C12.6799 18.5594 14.4305 20.31 16.5899 20.31Z" stroke="#9295A5" stroke-miterlimit="10"/>
</g>
<defs>
<clipPath id="clip0_363_1508">
<rect width="21" height="20.81" fill="white"/>
</clipPath>
</defs>
</svg>
