<svg width="20" height="20" viewBox="0 0 20 20" fill="none" xmlns="http://www.w3.org/2000/svg">
<g clip-path="url(#clip0_363_1516)">
<path d="M9.42 19.15C8.92 18.94 9.01 18.49 9.01 18.09C4.81 17.84 1.35 14.4 1.06 10.14C0.9 10.14 0.74 10.14 0.58 10.14C0.25 10.13 0 9.89 0 9.57C0 9.25 0.25 9.02 0.6 9.01C0.75 9.01 0.91 9.01 1.07 9.01C1.24 6.88 2.05 5.06 3.55 3.56C5.05 2.06 6.87 1.25 9.01 1.07C9.01 0.92 9.01 0.77 9.01 0.61C9.02 0.25 9.25 0 9.57 0C9.9 0 10.13 0.25 10.13 0.61C10.13 0.76 10.13 0.91 10.13 1.07C12.26 1.24 14.09 2.05 15.59 3.56C17.09 5.06 17.9 6.88 18.07 9.01C18.48 9.01 18.93 8.92 19.14 9.42V9.72C18.93 10.22 18.48 10.13 18.08 10.13C17.83 14.38 14.25 17.86 10.13 18.08C10.13 18.48 10.22 18.93 9.72 19.14H9.42V19.15ZM16.94 9.01C16.66 5.04 13.26 2.32 10.14 2.23C10.14 2.37 10.14 2.52 10.14 2.66C10.14 2.99 9.89 3.24 9.58 3.24C9.27 3.24 9.02 2.99 9.02 2.66C9.02 2.51 9.02 2.36 9.02 2.22C5.41 2.42 2.4 5.52 2.23 9.02C2.37 9.02 2.51 9.02 2.66 9.02C3 9.02 3.26 9.27 3.25 9.59C3.25 9.9 3 10.14 2.66 10.14C2.51 10.14 2.37 10.14 2.22 10.14C2.5 14.11 5.9 16.83 9.02 16.92C9.02 16.78 9.02 16.63 9.02 16.49C9.02 16.16 9.27 15.91 9.58 15.91C9.89 15.91 10.14 16.16 10.14 16.49C10.14 16.64 10.14 16.79 10.14 16.93C13.77 16.73 16.76 13.61 16.93 10.13C16.78 10.13 16.63 10.13 16.48 10.13C16.15 10.13 15.9 9.87 15.91 9.56C15.91 9.26 16.16 9.02 16.48 9.01C16.63 9.01 16.78 9.01 16.94 9.01Z" fill="#9295A5"/>
<path d="M9.58009 4.33997C12.4601 4.33997 14.8101 6.69997 14.8101 9.57997C14.8101 12.46 12.4501 14.81 9.57009 14.81C6.69009 14.81 4.34009 12.45 4.34009 9.56997C4.34009 6.68997 6.70009 4.33997 9.58009 4.33997ZM5.46009 9.57997C5.46009 11.84 7.31009 13.69 9.58009 13.69C11.8401 13.69 13.6801 11.84 13.6801 9.57997C13.6801 7.31997 11.8301 5.45997 9.57009 5.45997C7.30009 5.45997 5.46009 7.30997 5.46009 9.56997V9.57997Z" fill="#9295A5"/>
<path d="M9.5799 6.57996C11.2199 6.57996 12.5599 7.92996 12.5599 9.56996C12.5599 11.22 11.2099 12.56 9.5599 12.56C7.9199 12.56 6.5799 11.2 6.5899 9.55996C6.5899 7.91996 7.9399 6.57996 9.5799 6.57996ZM9.5799 7.70996C8.5599 7.70996 7.7099 8.54996 7.7099 9.56996C7.7099 10.59 8.5499 11.44 9.5699 11.44C10.5899 11.44 11.4399 10.6 11.4399 9.57996C11.4399 8.55996 10.5999 7.70996 9.5799 7.70996Z" fill="#9295A5"/>
</g>
<defs>
<clipPath id="clip0_363_1516">
<rect width="19.15" height="19.15" fill="white"/>
</clipPath>
</defs>
</svg>
