<svg width="20" height="20" viewBox="0 0 20 20" fill="none" xmlns="http://www.w3.org/2000/svg">
<path fill-rule="evenodd" clip-rule="evenodd" d="M16.2075 7.04L13.6567 9.16666C13.7814 9.71578 13.7814 10.2859 13.6567 10.835L16.2075 12.96C16.6469 12.0352 16.8749 11.0243 16.8749 10.0004C16.8749 8.97657 16.6469 7.96558 16.2075 7.04083V7.04ZM12.96 16.2083L10.8333 13.6567C10.2842 13.7814 9.71412 13.7814 9.165 13.6567L7.04 16.2075C7.96475 16.6469 8.97574 16.8749 9.99958 16.8749C11.0234 16.8749 12.0344 16.6469 12.9592 16.2075L12.96 16.2083ZM3.79167 12.96L6.34333 10.8333C6.21863 10.2842 6.21863 9.71412 6.34333 9.165L3.7925 7.04166C3.35308 7.96641 3.1251 8.97741 3.1251 10.0012C3.1251 11.0251 3.35308 12.0361 3.7925 12.9608L3.79167 12.96ZM7.04 3.79166L9.16667 6.34333C9.71579 6.21862 10.2859 6.21862 10.835 6.34333L12.96 3.7925C12.0353 3.35308 11.0243 3.1251 10.0004 3.1251C8.97658 3.1251 7.96558 3.35308 7.04083 3.7925L7.04 3.79166ZM14.2542 3.075C14.7957 3.40848 15.2963 3.80423 15.7458 4.25416C16.1954 4.70318 16.5908 5.20324 16.9242 5.74416C17.7095 7.02434 18.1251 8.49689 18.1251 9.99874C18.1251 11.5006 17.7095 12.9731 16.9242 14.2533C16.5907 14.7949 16.1949 15.2955 15.745 15.745C15.296 16.1945 14.7959 16.59 14.255 16.9233C12.9747 17.7088 11.502 18.1246 10 18.1246C8.49798 18.1246 7.02527 17.7088 5.745 16.9233C5.20404 16.5897 4.70397 16.194 4.255 15.7442C3.80517 15.2952 3.40942 14.7951 3.07583 14.2542C2.29037 12.9739 1.87461 11.5012 1.87461 9.99916C1.87461 8.49714 2.29037 7.02444 3.07583 5.74416C3.40941 5.20319 3.80516 4.70312 4.255 4.25416C4.70396 3.80432 5.20403 3.40857 5.745 3.075C7.02518 2.28969 8.49773 1.87402 9.99958 1.87402C11.5014 1.87402 12.974 2.28969 14.2542 3.075ZM11.7675 8.23333C11.5066 7.97147 11.1906 7.77106 10.8425 7.64666C10.2976 7.45271 9.70242 7.45271 9.1575 7.64666C8.80941 7.77106 8.49341 7.97147 8.2325 8.23333C7.96083 8.50416 7.76583 8.82083 7.64583 9.15833C7.45188 9.70325 7.45188 10.2984 7.64583 10.8433C7.76583 11.1808 7.96083 11.4975 8.2325 11.7683C8.50333 12.04 8.82 12.235 9.1575 12.355C9.70083 12.5492 10.2992 12.5492 10.8425 12.355C11.1906 12.2306 11.5066 12.0302 11.7675 11.7683C12.0392 11.4975 12.2342 11.1808 12.3542 10.8433C12.5481 10.2984 12.5481 9.70326 12.3542 9.15833C12.2298 8.81023 12.0294 8.49424 11.7675 8.23333Z" fill="#9295A5"/>
</svg>
