<svg width="16" height="16" viewBox="0 0 16 16" fill="none" xmlns="http://www.w3.org/2000/svg">
<path fill-rule="evenodd" clip-rule="evenodd" d="M6.21 5.056C8.13 2.58867 11.13 1 14.5 1C14.6326 1 14.7598 1.05268 14.8536 1.14645C14.9473 1.24021 15 1.36739 15 1.5C15 4.87067 13.4113 7.87 10.944 9.79067C11.0466 10.4335 11.0085 11.0909 10.8324 11.7176C10.6563 12.3443 10.3463 12.9253 9.92377 13.4205C9.50129 13.9158 8.97639 14.3135 8.38529 14.5862C7.79419 14.8588 7.15097 15 6.5 15C6.36739 15 6.24022 14.9473 6.14645 14.8536C6.05268 14.7598 6 14.6326 6 14.5V11.746C5.35195 11.2342 4.76617 10.6482 4.25467 10H1.5C1.36739 10 1.24021 9.94732 1.14645 9.85355C1.05268 9.75979 1 9.63261 1 9.5C0.999947 8.84897 1.14116 8.20568 1.41388 7.61453C1.68661 7.02337 2.08435 6.49843 2.57967 6.07594C3.07499 5.65345 3.65608 5.34346 4.28285 5.16737C4.90961 4.99128 5.56712 4.95328 6.21 5.056ZM10 4.5C9.60218 4.5 9.22064 4.65804 8.93934 4.93934C8.65804 5.22064 8.5 5.60218 8.5 6C8.5 6.39782 8.65804 6.77936 8.93934 7.06066C9.22064 7.34196 9.60218 7.5 10 7.5C10.3978 7.5 10.7794 7.34196 11.0607 7.06066C11.342 6.77936 11.5 6.39782 11.5 6C11.5 5.60218 11.342 5.22064 11.0607 4.93934C10.7794 4.65804 10.3978 4.5 10 4.5Z" fill="#089981"/>
<path d="M3.50666 11.4947C3.55932 11.4554 3.60373 11.4062 3.63736 11.3498C3.67098 11.2933 3.69316 11.2308 3.70264 11.1658C3.71211 11.1008 3.70868 11.0346 3.69256 10.9709C3.67643 10.9072 3.64793 10.8474 3.60866 10.7947C3.5694 10.742 3.52014 10.6976 3.46371 10.664C3.40729 10.6304 3.34479 10.6082 3.27979 10.5987C3.21478 10.5893 3.14855 10.5927 3.08488 10.6088C3.0212 10.6249 2.96132 10.6534 2.90866 10.6927C2.39725 11.0731 1.9996 11.5861 1.75872 12.1762C1.51783 12.7663 1.44289 13.4111 1.54199 14.0407C1.55811 14.1456 1.60717 14.2426 1.68207 14.3177C1.75698 14.3929 1.85384 14.4423 1.95866 14.4587C2.58835 14.5577 3.23313 14.4827 3.82324 14.2417C4.41335 14.0007 4.92633 13.6029 5.30666 13.0914C5.34719 13.0389 5.37686 12.9788 5.39395 12.9147C5.41104 12.8506 5.4152 12.7837 5.40619 12.718C5.39718 12.6523 5.37518 12.589 5.34148 12.5319C5.30777 12.4747 5.26303 12.4249 5.20986 12.3852C5.15669 12.3455 5.09616 12.3168 5.03179 12.3008C4.96742 12.2847 4.9005 12.2816 4.83493 12.2917C4.76936 12.3018 4.70645 12.3248 4.64986 12.3594C4.59327 12.394 4.54414 12.4396 4.50533 12.4934C4.27284 12.806 3.97038 13.0599 3.62216 13.2347C3.27394 13.4096 2.88963 13.5004 2.49999 13.5C2.49999 12.68 2.89466 11.9514 3.50666 11.4947Z" fill="#089981"/>
</svg>
