<svg width="18" height="20" viewBox="0 0 18 20" fill="none" xmlns="http://www.w3.org/2000/svg">
<path d="M18 6.93976C17.9896 6.84789 17.9695 6.75739 17.94 6.66976V6.57976C17.8919 6.47694 17.8278 6.38242 17.75 6.29976L11.75 0.299756C11.6673 0.221972 11.5728 0.157837 11.47 0.109756C11.4402 0.105516 11.4099 0.105516 11.38 0.109756C11.2784 0.0514971 11.1662 0.0141001 11.05 -0.000244141H7C6.20435 -0.000244141 5.44129 0.315826 4.87868 0.878436C4.31607 1.44104 4 2.20411 4 2.99976V3.99976H3C2.20435 3.99976 1.44129 4.31583 0.87868 4.87844C0.316071 5.44104 0 6.20411 0 6.99976V16.9998C0 17.7954 0.316071 18.5585 0.87868 19.1211C1.44129 19.6837 2.20435 19.9998 3 19.9998H11C11.7956 19.9998 12.5587 19.6837 13.1213 19.1211C13.6839 18.5585 14 17.7954 14 16.9998V15.9998H15C15.7956 15.9998 16.5587 15.6837 17.1213 15.1211C17.6839 14.5585 18 13.7954 18 12.9998V6.99976C18 6.99976 18 6.99976 18 6.93976ZM12 3.40976L14.59 5.99976H13C12.7348 5.99976 12.4804 5.8944 12.2929 5.70686C12.1054 5.51933 12 5.26497 12 4.99976V3.40976ZM12 16.9998C12 17.265 11.8946 17.5193 11.7071 17.7069C11.5196 17.8944 11.2652 17.9998 11 17.9998H3C2.73478 17.9998 2.48043 17.8944 2.29289 17.7069C2.10536 17.5193 2 17.265 2 16.9998V6.99976C2 6.73454 2.10536 6.48019 2.29289 6.29265C2.48043 6.10511 2.73478 5.99976 3 5.99976H4V12.9998C4 13.7954 4.31607 14.5585 4.87868 15.1211C5.44129 15.6837 6.20435 15.9998 7 15.9998H12V16.9998ZM16 12.9998C16 13.265 15.8946 13.5193 15.7071 13.7069C15.5196 13.8944 15.2652 13.9998 15 13.9998H7C6.73478 13.9998 6.48043 13.8944 6.29289 13.7069C6.10536 13.5193 6 13.265 6 12.9998V2.99976C6 2.73454 6.10536 2.48019 6.29289 2.29265C6.48043 2.10511 6.73478 1.99976 7 1.99976H10V4.99976C10 5.79541 10.3161 6.55847 10.8787 7.12108C11.4413 7.68369 12.2044 7.99976 13 7.99976H16V12.9998Z" fill="#089981"/>
</svg>
