<svg width="18" height="18" viewBox="0 0 18 18" fill="none" xmlns="http://www.w3.org/2000/svg">
<path d="M7.93916 7.94031C7.6579 8.22167 7.49993 8.60324 7.5 9.00107C7.50007 9.39891 7.65818 9.78042 7.93954 10.0617C8.2209 10.3429 8.60247 10.5009 9.0003 10.5008C9.39814 10.5008 9.77965 10.3427 10.0609 10.0613" stroke="#9295A5" stroke-width="2" stroke-linecap="round" stroke-linejoin="round"/>
<path d="M12.5107 12.5048C11.4587 13.163 10.241 13.5082 9 13.5C6.3 13.5 4.05 12 2.25 9C3.204 7.41 4.284 6.2415 5.49 5.4945M7.635 4.635C8.08428 4.54405 8.54161 4.49882 9 4.5C11.7 4.5 13.95 6 15.75 9C15.2505 9.8325 14.7157 10.5502 14.1465 11.1525M2.25 2.25L15.75 15.75" stroke="#9295A5" stroke-width="2" stroke-linecap="round" stroke-linejoin="round"/>
</svg>
