<svg width="16" height="16" viewBox="0 0 16 16" fill="none" xmlns="http://www.w3.org/2000/svg">
<path d="M9 15L7.66667 14.7333L8.2 11.8667L5.8 10.0667L4.93333 6.26667L3.46667 7.53334L4 10.0667L2.66667 10.3333L2 7.06667L4.96667 4.41667C5.22222 4.19445 5.52511 4.10289 5.87533 4.142C6.22556 4.18112 6.56156 4.26712 6.88333 4.4C7.23889 4.55556 7.60844 4.66667 7.992 4.73334C8.37556 4.8 8.76156 4.80556 9.15 4.75C9.53844 4.69445 9.89689 4.56667 10.2253 4.36667C10.5538 4.16667 10.8676 3.94445 11.1667 3.7L12 4.73334C11.6667 4.98889 11.3222 5.22778 10.9667 5.45C10.6111 5.67223 10.2278 5.84445 9.81667 5.96667C9.45 6.06667 9.08067 6.11956 8.70867 6.12534C8.33667 6.13111 7.96711 6.08934 7.6 6L8.06667 8.06667L10.5333 7.6L14 10.0667L13.2 11.1333L10.3333 9.13334L7.93333 9.6L9.73333 10.9333L9 15ZM5.33333 3.66667C4.96667 3.66667 4.65289 3.53623 4.392 3.27534C4.13111 3.01445 4.00044 2.70045 4 2.33334C3.99956 1.96623 4.13022 1.65245 4.392 1.392C4.65378 1.13156 4.96756 1.00089 5.33333 1C5.69911 0.999116 6.01311 1.12978 6.27533 1.392C6.53756 1.65423 6.668 1.968 6.66667 2.33334C6.66533 2.69867 6.53489 3.01267 6.27533 3.27534C6.01578 3.538 5.70178 3.66845 5.33333 3.66667Z" fill="#089981"/>
</svg>
