<svg width="16" height="16" viewBox="0 0 16 16" fill="none" xmlns="http://www.w3.org/2000/svg">
<path fill-rule="evenodd" clip-rule="evenodd" d="M8 1.5C4.41 1.5 1.5 4.41 1.5 8C1.5 11.59 4.41 14.5 8 14.5C11.59 14.5 14.5 11.59 14.5 8C14.5 4.41 11.59 1.5 8 1.5ZM8.5 6C8.5 5.86739 8.44732 5.74022 8.35355 5.64645C8.25979 5.55268 8.13261 5.5 8 5.5C7.86739 5.5 7.74022 5.55268 7.64645 5.64645C7.55268 5.74022 7.5 5.86739 7.5 6V7.5H6C5.86739 7.5 5.74022 7.55268 5.64645 7.64645C5.55268 7.74022 5.5 7.86739 5.5 8C5.5 8.13261 5.55268 8.25979 5.64645 8.35355C5.74022 8.44732 5.86739 8.5 6 8.5H7.5V10C7.5 10.1326 7.55268 10.2598 7.64645 10.3536C7.74022 10.4473 7.86739 10.5 8 10.5C8.13261 10.5 8.25979 10.4473 8.35355 10.3536C8.44732 10.2598 8.5 10.1326 8.5 10V8.5H10C10.1326 8.5 10.2598 8.44732 10.3536 8.35355C10.4473 8.25979 10.5 8.13261 10.5 8C10.5 7.86739 10.4473 7.74022 10.3536 7.64645C10.2598 7.55268 10.1326 7.5 10 7.5H8.5V6Z" fill="#089981"/>
</svg>
