<svg width="24" height="24" viewBox="0 0 24 24" fill="none" xmlns="http://www.w3.org/2000/svg">
<path d="M18 8.93976C17.9896 8.84789 17.9695 8.75739 17.94 8.66976V8.57976C17.8919 8.47694 17.8278 8.38242 17.75 8.29976L11.75 2.29976C11.6673 2.22197 11.5728 2.15784 11.47 2.10976C11.4402 2.10552 11.4099 2.10552 11.38 2.10976C11.2784 2.0515 11.1662 2.0141 11.05 1.99976H7C6.20435 1.99976 5.44129 2.31583 4.87868 2.87844C4.31607 3.44104 4 4.20411 4 4.99976V5.99976H3C2.20435 5.99976 1.44129 6.31583 0.87868 6.87844C0.316071 7.44104 0 8.20411 0 8.99976V18.9998C0 19.7954 0.316071 20.5585 0.87868 21.1211C1.44129 21.6837 2.20435 21.9998 3 21.9998H11C11.7956 21.9998 12.5587 21.6837 13.1213 21.1211C13.6839 20.5585 14 19.7954 14 18.9998V17.9998H15C15.7956 17.9998 16.5587 17.6837 17.1213 17.1211C17.6839 16.5585 18 15.7954 18 14.9998V8.99976C18 8.99976 18 8.99976 18 8.93976ZM12 5.40976L14.59 7.99976H13C12.7348 7.99976 12.4804 7.8944 12.2929 7.70686C12.1054 7.51933 12 7.26497 12 6.99976V5.40976ZM12 18.9998C12 19.265 11.8946 19.5193 11.7071 19.7069C11.5196 19.8944 11.2652 19.9998 11 19.9998H3C2.73478 19.9998 2.48043 19.8944 2.29289 19.7069C2.10536 19.5193 2 19.265 2 18.9998V8.99976C2 8.73454 2.10536 8.48019 2.29289 8.29265C2.48043 8.10511 2.73478 7.99976 3 7.99976H4V14.9998C4 15.7954 4.31607 16.5585 4.87868 17.1211C5.44129 17.6837 6.20435 17.9998 7 17.9998H12V18.9998ZM16 14.9998C16 15.265 15.8946 15.5193 15.7071 15.7069C15.5196 15.8944 15.2652 15.9998 15 15.9998H7C6.73478 15.9998 6.48043 15.8944 6.29289 15.7069C6.10536 15.5193 6 15.265 6 14.9998V4.99976C6 4.73454 6.10536 4.48019 6.29289 4.29265C6.48043 4.10511 6.73478 3.99976 7 3.99976H10V6.99976C10 7.79541 10.3161 8.55847 10.8787 9.12108C11.4413 9.68369 12.2044 9.99976 13 9.99976H16V14.9998Z" fill="#089981"/>
</svg>
