<svg width="12" height="12" viewBox="0 0 12 12" fill="none" xmlns="http://www.w3.org/2000/svg">
<path d="M6.5138 1C7.0763 1.0015 7.3618 1.0045 7.6083 1.0115L7.7053 1.015C7.8173 1.019 7.9278 1.024 8.0613 1.03C8.5933 1.055 8.9563 1.139 9.2748 1.2625C9.6048 1.3895 9.8828 1.5615 10.1608 1.839C10.4151 2.08887 10.6119 2.39124 10.7373 2.725C10.8608 3.0435 10.9448 3.4065 10.9698 3.939C10.9758 4.072 10.9808 4.1825 10.9848 4.295L10.9878 4.392C10.9953 4.638 10.9983 4.9235 10.9993 5.486L10.9998 5.859V6.514C11.001 6.8787 10.9972 7.2434 10.9883 7.608L10.9853 7.705C10.9813 7.8175 10.9763 7.928 10.9703 8.061C10.9453 8.5935 10.8603 8.956 10.7373 9.275C10.6119 9.60876 10.4151 9.91113 10.1608 10.161C9.91093 10.4153 9.60856 10.6121 9.2748 10.7375C8.9563 10.861 8.5933 10.945 8.0613 10.97L7.7053 10.985L7.6083 10.988C7.3618 10.995 7.0763 10.9985 6.5138 10.9995L6.1408 11H5.4863C5.12143 11.0013 4.75656 10.9975 4.3918 10.9885L4.2948 10.9855C4.1761 10.981 4.05743 10.9758 3.9388 10.97C3.4068 10.945 3.0438 10.861 2.7248 10.7375C2.39121 10.612 2.08902 10.4153 1.8393 10.161C1.58477 9.91118 1.38785 9.60881 1.2623 9.275C1.1388 8.9565 1.0548 8.5935 1.0298 8.061L1.0148 7.705L1.0123 7.608C1.00308 7.24341 0.998912 6.87871 0.999796 6.514V5.486C0.998412 5.1213 1.00208 4.7566 1.0108 4.392L1.0143 4.295C1.0183 4.1825 1.0233 4.072 1.0293 3.939C1.0543 3.4065 1.1383 3.044 1.2618 2.725C1.38764 2.3911 1.58491 2.08872 1.8398 1.839C2.08937 1.58477 2.39139 1.38804 2.7248 1.2625C3.0438 1.139 3.4063 1.055 3.9388 1.03C4.0718 1.024 4.1828 1.019 4.2948 1.015L4.3918 1.012C4.75639 1.00312 5.12109 0.999283 5.4858 1.0005L6.5138 1ZM5.9998 3.5C5.33675 3.5 4.70087 3.76339 4.23203 4.23223C3.76319 4.70107 3.4998 5.33696 3.4998 6C3.4998 6.66304 3.76319 7.29893 4.23203 7.76777C4.70087 8.23661 5.33675 8.5 5.9998 8.5C6.66284 8.5 7.29872 8.23661 7.76756 7.76777C8.2364 7.29893 8.4998 6.66304 8.4998 6C8.4998 5.33696 8.2364 4.70107 7.76756 4.23223C7.29872 3.76339 6.66284 3.5 5.9998 3.5ZM5.9998 4.5C6.19678 4.49997 6.39184 4.53873 6.57384 4.61409C6.75584 4.68944 6.92122 4.7999 7.06053 4.93916C7.19984 5.07843 7.31036 5.24377 7.38577 5.42574C7.46118 5.60772 7.50001 5.80277 7.50005 5.99975C7.50008 6.19673 7.46131 6.39179 7.38596 6.57379C7.31061 6.7558 7.20015 6.92117 7.06088 7.06048C6.92162 7.19979 6.75628 7.31031 6.5743 7.38572C6.39233 7.46114 6.19728 7.49997 6.0003 7.5C5.60247 7.5 5.22094 7.34196 4.93964 7.06066C4.65833 6.77936 4.5003 6.39782 4.5003 6C4.5003 5.60218 4.65833 5.22064 4.93964 4.93934C5.22094 4.65804 5.60247 4.5 6.0003 4.5M8.6253 2.75C8.45954 2.75 8.30056 2.81585 8.18335 2.93306C8.06614 3.05027 8.0003 3.20924 8.0003 3.375C8.0003 3.54076 8.06614 3.69973 8.18335 3.81694C8.30056 3.93415 8.45954 4 8.6253 4C8.79106 4 8.95003 3.93415 9.06724 3.81694C9.18445 3.69973 9.2503 3.54076 9.2503 3.375C9.2503 3.20924 9.18445 3.05027 9.06724 2.93306C8.95003 2.81585 8.79106 2.75 8.6253 2.75Z" fill="#9295A5"/>
</svg>
