<svg width="12" height="12" viewBox="0 0 12 12" fill="none" xmlns="http://www.w3.org/2000/svg">
<path d="M8.18 7C8.22 6.67 8.25 6.34 8.25 6C8.25 5.66 8.22 5.33 8.18 5H9.87C9.95 5.32 10 5.655 10 6C10 6.345 9.95 6.68 9.87 7M7.295 9.78C7.595 9.225 7.825 8.625 7.985 8H9.46C8.97558 8.83414 8.20706 9.466 7.295 9.78ZM7.17 7H4.83C4.78 6.67 4.75 6.34 4.75 6C4.75 5.66 4.78 5.325 4.83 5H7.17C7.215 5.325 7.25 5.66 7.25 6C7.25 6.34 7.215 6.67 7.17 7ZM6 9.98C5.585 9.38 5.25 8.715 5.045 8H6.955C6.75 8.715 6.415 9.38 6 9.98ZM4 4H2.54C3.01932 3.16352 3.78733 2.53062 4.7 2.22C4.4 2.775 4.175 3.375 4 4ZM2.54 8H4C4.175 8.625 4.4 9.225 4.7 9.78C3.78913 9.46615 3.02214 8.8341 2.54 8ZM2.13 7C2.05 6.68 2 6.345 2 6C2 5.655 2.05 5.32 2.13 5H3.82C3.78 5.33 3.75 5.66 3.75 6C3.75 6.34 3.78 6.67 3.82 7M6 2.015C6.415 2.615 6.75 3.285 6.955 4H5.045C5.25 3.285 5.585 2.615 6 2.015ZM9.46 4H7.985C7.82827 3.38081 7.59656 2.78305 7.295 2.22C8.215 2.535 8.98 3.17 9.46 4ZM6 1C3.235 1 1 3.25 1 6C1 7.32608 1.52678 8.59785 2.46447 9.53553C2.92876 9.99983 3.47995 10.3681 4.08658 10.6194C4.69321 10.8707 5.34339 11 6 11C7.32608 11 8.59785 10.4732 9.53553 9.53553C10.4732 8.59785 11 7.32608 11 6C11 5.34339 10.8707 4.69321 10.6194 4.08658C10.3681 3.47995 9.99983 2.92876 9.53553 2.46447C9.07124 2.00017 8.52005 1.63188 7.91342 1.3806C7.30679 1.12933 6.65661 1 6 1Z" fill="#9295A5"/>
</svg>
