<svg width="16" height="16" viewBox="0 0 16 16" fill="none" xmlns="http://www.w3.org/2000/svg">
<path d="M12.25 1.5C11.56 1.5 11 2.06 11 2.75V13.25C11 13.94 11.56 14.5 12.25 14.5H12.75C13.44 14.5 14 13.94 14 13.25V2.75C14 2.05933 13.44 1.5 12.75 1.5H12.25ZM6.5 5.75C6.5 5.05933 7.06 4.5 7.75 4.5H8.25C8.94067 4.5 9.5 5.06 9.5 5.75V13.25C9.5 13.94 8.94 14.5 8.25 14.5H7.75C7.41848 14.5 7.10054 14.3683 6.86612 14.1339C6.6317 13.8995 6.5 13.5815 6.5 13.25V5.75ZM2 8.75C2 8.05933 2.56 7.5 3.25 7.5H3.75C4.44067 7.5 5 8.06 5 8.75V13.25C5 13.94 4.44 14.5 3.75 14.5H3.25C2.91848 14.5 2.60054 14.3683 2.36612 14.1339C2.1317 13.8995 2 13.5815 2 13.25V8.75Z" fill="#089981"/>
</svg>
