<svg width="14" height="14" viewBox="0 0 14 14" fill="none" xmlns="http://www.w3.org/2000/svg">
<path fill-rule="evenodd" clip-rule="evenodd" d="M9.49668 6.69085C9.57861 6.77288 9.62463 6.88407 9.62463 7.00001C9.62463 7.11595 9.57861 7.22715 9.49668 7.30918L5.12168 11.6842C5.03874 11.7615 4.92905 11.8035 4.81571 11.8015C4.70237 11.7995 4.59422 11.7536 4.51407 11.6735C4.43391 11.5933 4.38799 11.4852 4.38599 11.3718C4.38399 11.2585 4.42607 11.1488 4.50335 11.0658L8.56918 7.00001L4.50335 2.93418C4.42607 2.85124 4.38399 2.74155 4.38599 2.62821C4.38799 2.51487 4.43391 2.40672 4.51407 2.32657C4.59422 2.24641 4.70237 2.20049 4.81571 2.19849C4.92905 2.19649 5.03874 2.23857 5.12168 2.31585L9.49668 6.69085Z" fill="#9295A5"/>
</svg>
