<svg width="20" height="20" viewBox="0 0 20 20" fill="none" xmlns="http://www.w3.org/2000/svg">
<path d="M18.2422 6.87502C18.0499 6.86877 17.859 6.91006 17.6865 6.99524C17.5139 7.08041 17.3651 7.20684 17.2531 7.3633C17.2436 7.37692 17.23 7.38716 17.2143 7.39252C17.1986 7.39789 17.1816 7.39811 17.1657 7.39314C17.1499 7.38818 17.136 7.37829 17.1262 7.36492C17.1163 7.35155 17.111 7.33538 17.1109 7.31877V5.88713C17.1109 5.07658 16.4727 4.39455 15.6625 4.37541C15.4645 4.37041 15.2674 4.40509 15.083 4.47742C14.8986 4.54975 14.7305 4.65826 14.5887 4.79656C14.4469 4.93485 14.3342 5.10014 14.2572 5.28268C14.1803 5.46521 14.1406 5.6613 14.1406 5.8594V9.06252C14.1406 9.08324 14.1324 9.10311 14.1177 9.11776C14.1031 9.13242 14.0832 9.14065 14.0625 9.14065H5.9375C5.91678 9.14065 5.89691 9.13242 5.88226 9.11776C5.86761 9.10311 5.85938 9.08324 5.85938 9.06252V5.88713C5.85938 5.07658 5.22109 4.39455 4.41094 4.37541C4.21304 4.37062 4.01618 4.40546 3.83194 4.47788C3.6477 4.55031 3.47982 4.65885 3.33816 4.79713C3.1965 4.9354 3.08392 5.10062 3.00707 5.28305C2.93021 5.46548 2.89062 5.66144 2.89062 5.8594V7.31955C2.89059 7.33616 2.88525 7.35233 2.8754 7.3657C2.86555 7.37907 2.8517 7.38896 2.83585 7.39392C2.82 7.39889 2.80298 7.39867 2.78726 7.3933C2.77154 7.38794 2.75794 7.3777 2.74844 7.36408C2.6364 7.20725 2.48734 7.08053 2.31451 6.99521C2.14168 6.90989 1.95045 6.8686 1.75781 6.87502C1.12109 6.89494 0.625 7.43401 0.625 8.07112V11.9274C0.625 12.5645 1.12266 13.1035 1.75781 13.1235C1.95012 13.1297 2.14099 13.0884 2.31352 13.0032C2.48605 12.9181 2.6349 12.7916 2.74688 12.6352C2.75615 12.6208 2.7699 12.6098 2.78602 12.604C2.80213 12.5982 2.81971 12.5978 2.83605 12.603C2.85238 12.6081 2.86658 12.6185 2.87644 12.6325C2.8863 12.6465 2.89129 12.6634 2.89062 12.6805V14.1129C2.89062 14.9219 3.52891 15.6055 4.33906 15.625C4.537 15.6298 4.73389 15.595 4.91815 15.5225C5.10241 15.4501 5.27032 15.3415 5.41198 15.2032C5.55365 15.0649 5.66621 14.8996 5.74305 14.7171C5.81988 14.5346 5.85943 14.3386 5.85938 14.1406V10.9375C5.85938 10.9168 5.86761 10.8969 5.88226 10.8823C5.89691 10.8676 5.91678 10.8594 5.9375 10.8594H14.0625C14.0832 10.8594 14.1031 10.8676 14.1177 10.8823C14.1324 10.8969 14.1406 10.9168 14.1406 10.9375V14.1129C14.1406 14.9235 14.7789 15.6055 15.5891 15.6246C15.787 15.6294 15.9838 15.5946 16.1681 15.5222C16.3523 15.4497 16.5202 15.3412 16.6618 15.2029C16.8035 15.0646 16.9161 14.8994 16.9929 14.717C17.0698 14.5346 17.1094 14.3386 17.1094 14.1406V12.6805C17.1094 12.6639 17.1147 12.6477 17.1246 12.6343C17.1344 12.621 17.1483 12.6111 17.1642 12.6061C17.18 12.6012 17.197 12.6014 17.2127 12.6067C17.2285 12.6121 17.2421 12.6223 17.2516 12.636C17.3636 12.7928 17.5127 12.9195 17.6855 13.0048C17.8583 13.0902 18.0496 13.1314 18.2422 13.125C18.8789 13.1051 19.375 12.566 19.375 11.9289V8.0719C19.375 7.43479 18.8773 6.89573 18.2422 6.87502Z" fill="#9295A5"/>
</svg>
