<svg width="20" height="20" viewBox="0 0 20 20" fill="none" xmlns="http://www.w3.org/2000/svg">
<path d="M10 10.9375C10.5178 10.9375 10.9375 10.5178 10.9375 10C10.9375 9.48223 10.5178 9.0625 10 9.0625C9.48223 9.0625 9.0625 9.48223 9.0625 10C9.0625 10.5178 9.48223 10.9375 10 10.9375Z" fill="#9295A5"/>
<path d="M10 1.875C5.51992 1.875 1.875 5.51992 1.875 10C1.875 14.4801 5.51992 18.125 10 18.125C14.4801 18.125 18.125 14.4801 18.125 10C18.125 5.51992 14.4801 1.875 10 1.875ZM14.1043 6.30195L12.273 10.8801C12.1473 11.1945 11.959 11.4801 11.7196 11.7196C11.4801 11.959 11.1945 12.1473 10.8801 12.273L6.30195 14.1043C6.24516 14.127 6.18295 14.1326 6.12303 14.1203C6.06311 14.108 6.00811 14.0784 5.96485 14.0351C5.9216 13.9919 5.89199 13.9369 5.8797 13.877C5.86741 13.817 5.87297 13.7548 5.8957 13.698L7.72695 9.11992C7.85269 8.8055 8.041 8.5199 8.28045 8.28045C8.5199 8.041 8.8055 7.85269 9.11992 7.72695L13.698 5.8957C13.7548 5.87297 13.817 5.86741 13.877 5.8797C13.9369 5.89199 13.9919 5.9216 14.0351 5.96485C14.0784 6.00811 14.108 6.06311 14.1203 6.12303C14.1326 6.18295 14.127 6.24516 14.1043 6.30195Z" fill="#9295A5"/>
</svg>
