<svg width="20" height="24" viewBox="0 0 20 24" fill="none" xmlns="http://www.w3.org/2000/svg">
<g clip-path="url(#clip0_409_256)">
<path d="M3.85859 6.12905C3.85859 6.12905 4.49134 8.97024 5.75685 9.19356C7.02236 9.41689 7.04717 6.26552 7.89084 3.82135C8.57323 1.84865 9.88836 0.620361 9.88836 0.620361C9.88836 0.620361 12.3325 3.51118 14.8511 5.62036C17.3698 7.72954 20.9181 11.1042 18.6477 16.3027C16.3772 21.5013 12.6179 22.5434 9.88836 22.5434C8.90821 22.5434 6.51367 22.0968 4.44171 20.6824C0.769256 18.1762 -1.6625 10.7568 3.85859 6.14145V6.12905Z" stroke="white" stroke-linecap="round" stroke-linejoin="round"/>
<path d="M9.72701 22.5434C12.866 22.5434 14.4292 19.7519 14.0322 17.4194C13.6848 15.4094 9.72701 11.9231 9.72701 11.9231C9.72701 11.9231 5.76919 15.4094 5.4218 17.4194C5.02477 19.7519 6.58805 22.5434 9.72701 22.5434Z" stroke="white" stroke-linecap="round" stroke-linejoin="round"/>
</g>
<defs>
<clipPath id="clip0_409_256">
<rect width="20" height="23.1638" fill="white"/>
</clipPath>
</defs>
</svg>
