<svg width="20" height="20" viewBox="0 0 20 20" fill="none" xmlns="http://www.w3.org/2000/svg">
<path fill-rule="evenodd" clip-rule="evenodd" d="M10.8025 1.90503C10.7523 1.83773 10.689 1.78124 10.6165 1.73893C10.5439 1.69662 10.4636 1.66937 10.3803 1.65879C10.297 1.64821 10.2124 1.65453 10.1316 1.67736C10.0508 1.7002 9.97544 1.73908 9.91 1.79169C8.31295 3.07384 7.25951 4.91222 6.96083 6.93836C6.41347 6.54144 5.93371 6.05886 5.54 5.50919C5.48652 5.43444 5.41722 5.37241 5.33703 5.32751C5.25684 5.28261 5.16773 5.25594 5.07605 5.24942C4.98438 5.24289 4.89239 5.25666 4.80665 5.28975C4.72091 5.32285 4.64352 5.37444 4.58 5.44086C3.47943 6.59216 2.77395 8.06393 2.56575 9.64297C2.35755 11.222 2.65745 12.8264 3.42199 14.2236C4.18653 15.6208 5.37603 16.7383 6.81817 17.4143C8.26031 18.0903 9.8802 18.2897 11.4432 17.9835C13.0062 17.6773 14.4312 16.8815 15.5117 15.7113C16.5921 14.5411 17.272 13.0574 17.4529 11.475C17.6337 9.89256 17.3061 8.29366 16.5175 6.90988C15.7289 5.5261 14.5203 4.4293 13.0667 3.77836C12.1731 3.34383 11.3967 2.70144 10.8025 1.90503ZM13.125 11.875C13.1247 12.3271 13.0263 12.7736 12.8367 13.1839C12.647 13.5943 12.3706 13.9586 12.0265 14.2517C11.6824 14.5448 11.2788 14.7598 10.8436 14.8818C10.4084 15.0039 9.95182 15.03 9.50549 14.9585C9.05916 14.887 8.63366 14.7195 8.25834 14.4675C7.88303 14.2156 7.56684 13.8853 7.33158 13.4993C7.09632 13.1133 6.9476 12.6809 6.89568 12.2318C6.84376 11.7828 6.88987 11.3278 7.03083 10.8984C7.55416 11.2859 8.15583 11.5734 8.80833 11.7317C8.98523 10.5908 9.55214 9.54654 10.4125 8.77669C11.1633 8.87668 11.8523 9.24597 12.3512 9.81589C12.8502 10.3858 13.1252 11.1176 13.125 11.875Z" fill="#9295A5"/>
</svg>
