<svg width="24" height="24" viewBox="0 0 24 24" fill="none" xmlns="http://www.w3.org/2000/svg">
<path d="M7.19187 1V4.02594M10.4009 1V4.02594M13.6099 1V4.02594M16.8189 1V4.02594M7.19187 19.931V22.9569M10.3901 19.931V22.9569M13.5884 19.931V22.9569M16.7974 19.931V22.9569M1 16.7974H4.02594M1 13.5776H4.02594M1 10.3578H4.02594M1 7.12726H4.02594M19.9848 16.7974H23M19.9848 13.5776H23M19.9848 10.3578H23M19.9848 7.1488H23M6.20117 4.02594H17.8096C18.999 4.02594 19.9633 4.99018 19.9633 6.17964V17.7881C19.9633 18.9775 18.999 19.9418 17.8096 19.9418H6.20117C5.01172 19.9418 4.04748 18.9775 4.04748 17.7881V6.17964C4.04748 4.99018 5.01172 4.02594 6.20117 4.02594ZM12.5115 16.7974H7.19187V7.15957H16.8189V12.4792L12.5115 16.7866V16.7974Z" stroke="white" stroke-linecap="round" stroke-linejoin="round"/>
</svg>
