<svg width="22" height="22" viewBox="0 0 22 22" fill="none" xmlns="http://www.w3.org/2000/svg">
<g clip-path="url(#clip0_382_395)">
<path d="M4.17993 4.97618V2.32571C4.17993 1.33047 4.9866 0.523804 5.98184 0.523804C6.97707 0.523804 7.78374 1.33047 7.78374 2.32571V4.97618" stroke="white" stroke-miterlimit="10"/>
<path d="M4.62012 21.2771C6.88238 21.2771 8.71631 19.4432 8.71631 17.1809C8.71631 14.9186 6.88238 13.0847 4.62012 13.0847C2.35785 13.0847 0.523926 14.9186 0.523926 17.1809C0.523926 19.4432 2.35785 21.2771 4.62012 21.2771Z" stroke="white" stroke-miterlimit="10"/>
<path d="M21.4763 17.1391V8.64288C21.4763 6.62098 19.842 4.98669 17.8201 4.98669H4.18012C2.15821 4.98669 0.523926 6.62098 0.523926 8.64288V17.1391" stroke="white" stroke-miterlimit="10"/>
<path d="M13.2944 17.1391V12.8962C13.2944 11.6286 12.2677 10.6019 11.0001 10.6019C9.73248 10.6019 8.70581 11.6286 8.70581 12.8962V17.1391" stroke="white" stroke-miterlimit="10"/>
<path d="M17.8201 4.97618V2.32571C17.8201 1.33047 17.0135 0.523804 16.0182 0.523804C15.023 0.523804 14.2163 1.33047 14.2163 2.32571V4.97618" stroke="white" stroke-miterlimit="10"/>
<path d="M17.3799 21.2771C19.6421 21.2771 21.4761 19.4432 21.4761 17.1809C21.4761 14.9186 19.6421 13.0847 17.3799 13.0847C15.1176 13.0847 13.2837 14.9186 13.2837 17.1809C13.2837 19.4432 15.1176 21.2771 17.3799 21.2771Z" stroke="white" stroke-miterlimit="10"/>
</g>
<defs>
<clipPath id="clip0_382_395">
<rect width="22" height="21.801" fill="white"/>
</clipPath>
</defs>
</svg>
