<svg width="20" height="20" viewBox="0 0 20 20" fill="none" xmlns="http://www.w3.org/2000/svg">
<path fill-rule="evenodd" clip-rule="evenodd" d="M16.585 3.41498C16.2948 3.12471 15.9503 2.89445 15.5711 2.73735C15.1919 2.58025 14.7854 2.4994 14.375 2.4994C13.9645 2.4994 13.5581 2.58025 13.1789 2.73735C12.7997 2.89445 12.4552 3.12471 12.165 3.41498L8.41499 7.16498C8.06121 7.51845 7.79743 7.95167 7.64581 8.42824C7.49419 8.9048 7.45916 9.4108 7.54367 9.90371C7.62818 10.3966 7.82975 10.8621 8.13145 11.2609C8.43315 11.6598 8.82618 11.9804 9.27749 12.1958C9.42192 12.2702 9.53169 12.398 9.58353 12.552C9.63537 12.7059 9.62521 12.8741 9.55521 13.0207C9.48521 13.1673 9.36086 13.2809 9.20852 13.3374C9.05619 13.3939 8.88784 13.3888 8.73916 13.3233C8.10759 13.0216 7.55761 12.5728 7.13542 12.0145C6.71323 11.4563 6.43114 10.8049 6.31285 10.115C6.19455 9.42515 6.2435 8.71698 6.45558 8.04995C6.66766 7.38292 7.03668 6.77652 7.53166 6.28165L11.2817 2.53165C11.686 2.11676 12.1686 1.78629 12.7016 1.55942C13.2347 1.33255 13.8074 1.2138 14.3867 1.21005C14.966 1.20631 15.5403 1.31764 16.0762 1.53759C16.6121 1.75755 17.099 2.08175 17.5086 2.49137C17.9182 2.90099 18.2424 3.38789 18.4624 3.9238C18.6823 4.45971 18.7937 5.03397 18.7899 5.61326C18.7862 6.19254 18.6674 6.76531 18.4406 7.29834C18.2137 7.83136 17.8832 8.31402 17.4683 8.71831L16.0042 10.1825C15.9469 10.2439 15.8779 10.2931 15.8013 10.3273C15.7246 10.3615 15.6418 10.3798 15.5579 10.3813C15.474 10.3828 15.3907 10.3673 15.3128 10.3359C15.235 10.3045 15.1643 10.2577 15.105 10.1983C15.0456 10.139 14.9988 10.0683 14.9674 9.99048C14.936 9.91265 14.9205 9.8293 14.922 9.74538C14.9235 9.66146 14.9418 9.5787 14.976 9.50203C15.0102 9.42536 15.0594 9.35636 15.1208 9.29915L16.585 7.83498C16.8753 7.54479 17.1055 7.20025 17.2626 6.82105C17.4197 6.44186 17.5006 6.03543 17.5006 5.62498C17.5006 5.21453 17.4197 4.8081 17.2626 4.4289C17.1055 4.04971 16.8753 3.70517 16.585 3.41498ZM10.4275 6.97081C10.499 6.82132 10.627 6.70635 10.7833 6.65118C10.9395 6.59602 11.1113 6.60518 11.2608 6.67665C11.8924 6.97833 12.4424 7.42715 12.8646 7.98541C13.2868 8.54368 13.5688 9.19509 13.6871 9.88495C13.8054 10.5748 13.7565 11.283 13.5444 11.95C13.3323 12.617 12.9633 13.2234 12.4683 13.7183L8.71833 17.4683C8.31404 17.8832 7.83138 18.2137 7.29835 18.4405C6.76533 18.6674 6.19256 18.7862 5.61327 18.7899C5.03399 18.7937 4.45973 18.6823 3.92382 18.4624C3.3879 18.2424 2.90101 17.9182 2.49138 17.5086C2.08176 17.099 1.75756 16.6121 1.53761 16.0762C1.31766 15.5402 1.20632 14.966 1.21007 14.3867C1.21381 13.8074 1.33257 13.2346 1.55944 12.7016C1.78631 12.1686 2.11677 11.6859 2.53166 11.2816L3.99583 9.81748C4.05305 9.75607 4.12205 9.70682 4.19871 9.67266C4.27538 9.6385 4.35814 9.62013 4.44206 9.61865C4.52598 9.61717 4.60933 9.63261 4.68716 9.66404C4.76498 9.69548 4.83568 9.74226 4.89503 9.80161C4.95437 9.86096 5.00116 9.93166 5.0326 10.0095C5.06403 10.0873 5.07947 10.1707 5.07799 10.2546C5.07651 10.3385 5.05814 10.4213 5.02398 10.4979C4.98982 10.5746 4.94057 10.6436 4.87916 10.7008L3.41499 12.165C3.12477 12.4552 2.89456 12.7997 2.73749 13.1789C2.58042 13.5581 2.49958 13.9645 2.49958 14.375C2.49958 14.7854 2.58042 15.1918 2.73749 15.571C2.89456 15.9502 3.12477 16.2948 3.41499 16.585C3.70521 16.8752 4.04976 17.1054 4.42895 17.2625C4.80814 17.4196 5.21456 17.5004 5.62499 17.5004C6.03543 17.5004 6.44184 17.4196 6.82104 17.2625C7.20023 17.1054 7.54477 16.8752 7.83499 16.585L11.585 12.835C11.9388 12.4815 12.2026 12.0483 12.3542 11.5717C12.5058 11.0952 12.5408 10.5892 12.4563 10.0962C12.3718 9.60333 12.1702 9.1379 11.8685 8.73905C11.5668 8.3402 11.1738 8.01959 10.7225 7.80414C10.6484 7.76881 10.582 7.71922 10.5271 7.65821C10.4721 7.5972 10.4298 7.52597 10.4024 7.44859C10.375 7.3712 10.3631 7.28918 10.3674 7.2072C10.3717 7.12522 10.3921 7.0449 10.4275 6.97081Z" fill="#9295A5"/>
</svg>
