<svg width="16" height="16" viewBox="0 0 16 16" fill="none" xmlns="http://www.w3.org/2000/svg">
<path fill-rule="evenodd" clip-rule="evenodd" d="M8.642 1.52397C8.60182 1.47013 8.55121 1.42494 8.49318 1.39109C8.43515 1.35725 8.3709 1.33544 8.30426 1.32698C8.23762 1.31852 8.16995 1.32357 8.1053 1.34184C8.04066 1.36011 7.98036 1.39122 7.928 1.4333C6.65036 2.45902 5.80761 3.92973 5.56867 5.55064C5.13078 5.2331 4.74697 4.84704 4.432 4.4073C4.38922 4.34751 4.33378 4.29788 4.26963 4.26196C4.20547 4.22604 4.13419 4.2047 4.06085 4.19948C3.98751 4.19426 3.91392 4.20528 3.84532 4.23175C3.77673 4.25823 3.71482 4.2995 3.664 4.35264C2.78355 5.27368 2.21916 6.45109 2.0526 7.71433C1.88605 8.97757 2.12596 10.261 2.7376 11.3788C3.34923 12.4966 4.30083 13.3906 5.45454 13.9314C6.60825 14.4722 7.90417 14.6317 9.15457 14.3867C10.405 14.1418 11.5449 13.5051 12.4093 12.569C13.2737 11.6329 13.8176 10.4459 13.9623 9.17993C14.107 7.914 13.8449 6.63488 13.214 5.52786C12.5831 4.42083 11.6162 3.54339 10.4533 3.02264C9.73846 2.67502 9.11733 2.1611 8.642 1.52397ZM10.5 9.49997C10.4998 9.86159 10.4211 10.2189 10.2693 10.5471C10.1176 10.8754 9.8965 11.1668 9.62122 11.4013C9.34595 11.6358 9.02308 11.8078 8.67488 11.9054C8.32668 12.003 7.96146 12.024 7.60439 11.9667C7.24733 11.9095 6.90693 11.7755 6.60668 11.574C6.30643 11.3724 6.05347 11.1082 5.86527 10.7994C5.67706 10.4906 5.55809 10.1446 5.51655 9.78541C5.47501 9.42619 5.5119 9.06223 5.62467 8.71864C6.04333 9.02864 6.52467 9.25864 7.04667 9.3853C7.18819 8.47261 7.64171 7.63718 8.33 7.0213C8.93067 7.10129 9.48184 7.39673 9.881 7.85267C10.2802 8.3086 10.5001 8.894 10.5 9.49997Z" fill="#089981"/>
</svg>
