<svg width="12" height="12" viewBox="0 0 12 12" fill="none" xmlns="http://www.w3.org/2000/svg">
<path d="M2.25 3.1875C2.25 2.64049 2.4673 2.11589 2.85409 1.72909C3.24089 1.3423 3.76549 1.125 4.3125 1.125C4.85951 1.125 5.38411 1.3423 5.77091 1.72909C6.1577 2.11589 6.375 2.64049 6.375 3.1875C6.375 3.73451 6.1577 4.25911 5.77091 4.64591C5.38411 5.0327 4.85951 5.25 4.3125 5.25C3.76549 5.25 3.24089 5.0327 2.85409 4.64591C2.4673 4.25911 2.25 3.73451 2.25 3.1875ZM7.125 4.3125C7.125 4.09089 7.16865 3.87146 7.25345 3.66672C7.33826 3.46198 7.46256 3.27596 7.61926 3.11926C7.77596 2.96256 7.96198 2.83826 8.16672 2.75345C8.37146 2.66865 8.59089 2.625 8.8125 2.625C9.03411 2.625 9.25354 2.66865 9.45828 2.75345C9.66302 2.83826 9.84904 2.96256 10.0057 3.11926C10.1624 3.27596 10.2867 3.46198 10.3715 3.66672C10.4564 3.87146 10.5 4.09089 10.5 4.3125C10.5 4.76005 10.3222 5.18927 10.0057 5.50574C9.68928 5.82221 9.26005 6 8.8125 6C8.36495 6 7.93573 5.82221 7.61926 5.50574C7.30279 5.18927 7.125 4.76005 7.125 4.3125ZM0.75 9.5625C0.75 8.61767 1.12533 7.71153 1.79343 7.04343C2.46153 6.37533 3.36767 6 4.3125 6C5.25733 6 6.16347 6.37533 6.83157 7.04343C7.49967 7.71153 7.875 8.61767 7.875 9.5625V9.564L7.8745 9.6235C7.87344 9.68709 7.85623 9.74936 7.82447 9.80447C7.79272 9.85957 7.74748 9.90569 7.693 9.9385C6.6726 10.553 5.50363 10.8768 4.3125 10.875C3.0765 10.875 1.9195 10.533 0.9325 9.9385C0.877926 9.90575 0.832583 9.85966 0.800743 9.80455C0.768903 9.74944 0.751613 9.68713 0.7505 9.6235L0.75 9.5625ZM8.625 9.564L8.6245 9.636C8.6217 9.80265 8.58191 9.96661 8.508 10.116C9.38085 10.1698 10.2527 9.99581 11.038 9.611C11.0987 9.58131 11.1503 9.53576 11.1873 9.47917C11.2242 9.42257 11.2452 9.35704 11.248 9.2895C11.2657 8.87012 11.1747 8.45329 10.984 8.07938C10.7932 7.70546 10.5092 7.38715 10.1593 7.15525C9.80939 6.92336 9.40556 6.78574 8.98688 6.75574C8.5682 6.72574 8.14887 6.80436 7.7695 6.984C8.3261 7.72829 8.62612 8.63311 8.6245 9.5625L8.625 9.564Z" fill="#9295A5"/>
</svg>
