<svg width="16" height="16" viewBox="0 0 16 16" fill="none" xmlns="http://www.w3.org/2000/svg">
<path fill-rule="evenodd" clip-rule="evenodd" d="M4.22 4.22001C4.07955 4.36064 4.00066 4.55126 4.00066 4.75001C4.00066 4.94876 4.07955 5.13939 4.22 5.28001L9.44 10.5H5.75C5.55109 10.5 5.36032 10.579 5.21967 10.7197C5.07902 10.8603 5 11.0511 5 11.25C5 11.4489 5.07902 11.6397 5.21967 11.7803C5.36032 11.921 5.55109 12 5.75 12H11.25C11.4489 12 11.6397 11.921 11.7803 11.7803C11.921 11.6397 12 11.4489 12 11.25V5.75001C12 5.5511 11.921 5.36033 11.7803 5.21968C11.6397 5.07903 11.4489 5.00001 11.25 5.00001C11.0511 5.00001 10.8603 5.07903 10.7197 5.21968C10.579 5.36033 10.5 5.5511 10.5 5.75001V9.44001L5.28 4.22001C5.13937 4.07956 4.94875 4.00067 4.75 4.00067C4.55125 4.00067 4.36063 4.07956 4.22 4.22001Z" fill="#F23645"/>
</svg>
