<svg width="16" height="16" viewBox="0 0 16 16" fill="none" xmlns="http://www.w3.org/2000/svg">
<path d="M14.5938 5.50001C14.4399 5.49501 14.2872 5.52804 14.1492 5.59618C14.0112 5.66432 13.8921 5.76546 13.8025 5.89063C13.7949 5.90153 13.784 5.90971 13.7714 5.91401C13.7589 5.9183 13.7453 5.91847 13.7326 5.9145C13.7199 5.91053 13.7088 5.90262 13.7009 5.89192C13.693 5.88122 13.6888 5.86829 13.6888 5.85501V4.70969C13.6888 4.06126 13.1781 3.51563 12.53 3.50032C12.3716 3.49631 12.214 3.52406 12.0664 3.58192C11.9189 3.63979 11.7844 3.72659 11.671 3.83723C11.5575 3.94787 11.4673 4.0801 11.4058 4.22613C11.3442 4.37216 11.3125 4.52903 11.3125 4.68751V7.25001C11.3125 7.26658 11.3059 7.28248 11.2942 7.2942C11.2825 7.30592 11.2666 7.31251 11.25 7.31251H4.75C4.73342 7.31251 4.71753 7.30592 4.70581 7.2942C4.69408 7.28248 4.6875 7.26658 4.6875 7.25001V4.70969C4.6875 4.06126 4.17687 3.51563 3.52875 3.50032C3.37043 3.49648 3.21294 3.52436 3.06555 3.5823C2.91816 3.64023 2.78385 3.72707 2.67052 3.83769C2.5572 3.94831 2.46714 4.08048 2.40565 4.22643C2.34417 4.37237 2.3125 4.52914 2.3125 4.68751V5.85563C2.31247 5.86892 2.3082 5.88185 2.30032 5.89255C2.29244 5.90325 2.28136 5.91116 2.26868 5.91513C2.256 5.9191 2.24238 5.91892 2.22981 5.91463C2.21723 5.91034 2.20636 5.90215 2.19875 5.89126C2.10912 5.76579 1.98987 5.66441 1.85161 5.59616C1.71335 5.5279 1.56036 5.49487 1.40625 5.50001C0.896875 5.51594 0.5 5.94719 0.5 6.45688V9.54188C0.5 10.0516 0.898125 10.4828 1.40625 10.4988C1.56009 10.5038 1.7128 10.4707 1.85082 10.4026C1.98884 10.3344 2.10792 10.2333 2.1975 10.1081C2.20492 10.0966 2.21592 10.0878 2.22881 10.0832C2.2417 10.0785 2.25577 10.0782 2.26884 10.0824C2.28191 10.0865 2.29326 10.0948 2.30115 10.106C2.30904 10.1172 2.31303 10.1307 2.3125 10.1444V11.2903C2.3125 11.9375 2.82313 12.4844 3.47125 12.5C3.6296 12.5038 3.78711 12.476 3.93452 12.418C4.08193 12.36 4.21625 12.2732 4.32959 12.1625C4.44292 12.0519 4.53297 11.9197 4.59444 11.7737C4.6559 11.6277 4.68755 11.4709 4.6875 11.3125V8.75001C4.6875 8.73343 4.69408 8.71753 4.70581 8.70581C4.71753 8.69409 4.73342 8.68751 4.75 8.68751H11.25C11.2666 8.68751 11.2825 8.69409 11.2942 8.70581C11.3059 8.71753 11.3125 8.73343 11.3125 8.75001V11.2903C11.3125 11.9388 11.8231 12.4844 12.4712 12.4997C12.6296 12.5035 12.7871 12.4757 12.9344 12.4177C13.0818 12.3598 13.2161 12.2729 13.3295 12.1623C13.4428 12.0517 13.5329 11.9195 13.5943 11.7736C13.6558 11.6276 13.6875 11.4709 13.6875 11.3125V10.1444C13.6875 10.1311 13.6918 10.1182 13.6997 10.1075C13.7076 10.0968 13.7186 10.0889 13.7313 10.0849C13.744 10.0809 13.7576 10.0811 13.7702 10.0854C13.7828 10.0897 13.7936 10.0979 13.8013 10.1088C13.8909 10.2342 14.0101 10.3356 14.1484 10.4039C14.2867 10.4721 14.4396 10.5051 14.5938 10.5C15.1031 10.4841 15.5 10.0528 15.5 9.54313V6.45751C15.5 5.94782 15.1019 5.51657 14.5938 5.50001Z" fill="#089981"/>
</svg>
