<svg width="16" height="16" viewBox="0 0 16 16" fill="none" xmlns="http://www.w3.org/2000/svg">
<path fill-rule="evenodd" clip-rule="evenodd" d="M7.88533 1.5C7.27467 1.5 6.75267 1.942 6.652 2.54467L6.59133 2.91067C6.57452 3.00254 6.53381 3.08836 6.47331 3.15952C6.41281 3.23067 6.33464 3.28464 6.24667 3.316C6.13895 3.3563 6.03266 3.40032 5.928 3.448C5.84359 3.48813 5.7501 3.50531 5.65695 3.49782C5.56379 3.49033 5.47424 3.45843 5.39733 3.40533L5.09533 3.18933C4.85453 3.01729 4.56049 2.93627 4.26555 2.96068C3.97061 2.9851 3.6939 3.11337 3.48467 3.32267L3.32267 3.48467C3.11337 3.6939 2.9851 3.97061 2.96068 4.26555C2.93627 4.56049 3.01729 4.85453 3.18933 5.09533L3.40533 5.39733C3.45843 5.47424 3.49033 5.56379 3.49782 5.65695C3.50531 5.7501 3.48813 5.84359 3.448 5.928C3.40032 6.03266 3.3563 6.13895 3.316 6.24667C3.28464 6.33464 3.23067 6.41281 3.15952 6.47331C3.08836 6.53381 3.00254 6.57452 2.91067 6.59133L2.544 6.65267C2.25228 6.70141 1.98729 6.85201 1.79614 7.07771C1.60499 7.3034 1.50006 7.58957 1.5 7.88533V8.11467C1.5 8.72533 1.942 9.24733 2.54467 9.348L2.91067 9.40867C3.098 9.44 3.24933 9.57533 3.316 9.75333C3.356 9.86133 3.40067 9.96733 3.448 10.072C3.48813 10.1564 3.50531 10.2499 3.49782 10.3431C3.49033 10.4362 3.45843 10.5258 3.40533 10.6027L3.18933 10.9047C3.01729 11.1455 2.93627 11.4395 2.96068 11.7344C2.9851 12.0294 3.11337 12.3061 3.32267 12.5153L3.48467 12.6773C3.91667 13.1093 4.598 13.166 5.09533 12.8107L5.39733 12.5947C5.47424 12.5416 5.56379 12.5097 5.65695 12.5022C5.7501 12.4947 5.84359 12.5119 5.928 12.552C6.03267 12.5993 6.13867 12.6433 6.24667 12.684C6.42467 12.7507 6.56 12.902 6.59133 13.0893L6.65267 13.456C6.75267 14.058 7.274 14.5 7.88533 14.5H8.11467C8.72533 14.5 9.24733 14.058 9.348 13.4553L9.40867 13.0893C9.42548 12.9975 9.46619 12.9116 9.52669 12.8405C9.58719 12.7693 9.66536 12.7154 9.75333 12.684C9.86104 12.6437 9.96732 12.5996 10.072 12.552C10.1564 12.5119 10.2499 12.4947 10.3431 12.5022C10.4362 12.5097 10.5258 12.5416 10.6027 12.5947L10.9047 12.8107C11.1455 12.9827 11.4395 13.0637 11.7344 13.0393C12.0294 13.0149 12.3061 12.8866 12.5153 12.6773L12.6773 12.5153C13.1093 12.0833 13.166 11.402 12.8107 10.9047L12.5947 10.6027C12.5416 10.5258 12.5097 10.4362 12.5022 10.3431C12.4947 10.2499 12.5119 10.1564 12.552 10.072C12.5993 9.96733 12.6433 9.86133 12.684 9.75333C12.7507 9.57533 12.902 9.44 13.0893 9.40867L13.456 9.348C13.7478 9.29924 14.0129 9.14854 14.2041 8.9227C14.3952 8.69687 14.5001 8.41055 14.5 8.11467V7.88533C14.5 7.27467 14.058 6.75267 13.4553 6.652L13.0893 6.59133C12.9975 6.57452 12.9116 6.53381 12.8405 6.47331C12.7693 6.41281 12.7154 6.33464 12.684 6.24667C12.6437 6.13896 12.5996 6.03267 12.552 5.928C12.5119 5.84359 12.4947 5.7501 12.5022 5.65695C12.5097 5.56379 12.5416 5.47424 12.5947 5.39733L12.8107 5.09533C12.9827 4.85453 13.0637 4.56049 13.0393 4.26555C13.0149 3.97061 12.8866 3.6939 12.6773 3.48467L12.5153 3.32267C12.3061 3.11337 12.0294 2.9851 11.7344 2.96068C11.4395 2.93627 11.1455 3.01729 10.9047 3.18933L10.6027 3.40533C10.5258 3.45843 10.4362 3.49033 10.3431 3.49782C10.2499 3.50531 10.1564 3.48813 10.072 3.448C9.96734 3.40033 9.86105 3.3563 9.75333 3.316C9.66536 3.28464 9.58719 3.23067 9.52669 3.15952C9.46619 3.08836 9.42548 3.00254 9.40867 2.91067L9.348 2.544C9.29924 2.25217 9.14854 1.98709 8.9227 1.79592C8.69687 1.60476 8.41055 1.4999 8.11467 1.5H7.88533ZM8 10.5C8.66304 10.5 9.29893 10.2366 9.76777 9.76777C10.2366 9.29893 10.5 8.66304 10.5 8C10.5 7.33696 10.2366 6.70107 9.76777 6.23223C9.29893 5.76339 8.66304 5.5 8 5.5C7.33696 5.5 6.70107 5.76339 6.23223 6.23223C5.76339 6.70107 5.5 7.33696 5.5 8C5.5 8.66304 5.76339 9.29893 6.23223 9.76777C6.70107 10.2366 7.33696 10.5 8 10.5Z" fill="#089981"/>
</svg>
