<svg width="16" height="16" viewBox="0 0 16 16" fill="none" xmlns="http://www.w3.org/2000/svg">
<path fill-rule="evenodd" clip-rule="evenodd" d="M8.344 1.44665C8.25112 1.35859 8.128 1.30951 8 1.30951C7.87201 1.30951 7.74889 1.35859 7.656 1.44665C6.24085 2.79057 4.35609 3.52754 2.40467 3.49999C2.29836 3.49861 2.19438 3.53115 2.10782 3.59289C2.02126 3.65463 1.95664 3.74235 1.92334 3.84332C1.64199 4.70076 1.49908 5.59757 1.5 6.49999C1.5 10.4613 4.20934 13.7887 7.87534 14.732C7.95711 14.7531 8.0429 14.7531 8.12467 14.732C11.7907 13.7887 14.5 10.4613 14.5 6.49999C14.5 5.57332 14.3513 4.67999 14.0767 3.84332C14.0435 3.74223 13.9789 3.65436 13.8923 3.59249C13.8058 3.53062 13.7017 3.49798 13.5953 3.49932L13.5 3.49999C11.5027 3.49999 9.68867 2.71999 8.344 1.44665ZM10.4067 6.79065C10.4467 6.73735 10.4756 6.6766 10.4918 6.61195C10.508 6.54731 10.5111 6.48008 10.5009 6.41422C10.4907 6.34836 10.4675 6.2852 10.4326 6.22845C10.3976 6.1717 10.3517 6.1225 10.2975 6.08375C10.2433 6.045 10.1819 6.01748 10.1169 6.00281C10.0519 5.98813 9.98459 5.9866 9.91899 5.9983C9.85338 6.00999 9.79078 6.03469 9.73486 6.07093C9.67893 6.10717 9.63082 6.15422 9.59334 6.20932L7.436 9.22932L6.35334 8.14665C6.25855 8.05833 6.13319 8.01025 6.00366 8.01254C5.87412 8.01482 5.75053 8.0673 5.65892 8.15891C5.56732 8.25051 5.51484 8.3741 5.51255 8.50364C5.51027 8.63317 5.55835 8.75854 5.64667 8.85332L7.14667 10.3533C7.198 10.4046 7.25987 10.4441 7.328 10.4691C7.39612 10.4941 7.46887 10.5039 7.54118 10.4979C7.61349 10.492 7.68364 10.4703 7.74676 10.4346C7.80987 10.3988 7.86444 10.3497 7.90667 10.2907L10.4067 6.79065Z" fill="#089981"/>
</svg>
