<svg width="12" height="12" viewBox="0 0 12 12" fill="none" xmlns="http://www.w3.org/2000/svg">
<path d="M6.4748 11C4.2233 11 2.2523 9.48 1.6698 7.2935C1.0873 5.107 2.0383 2.7995 3.9888 1.6685C4.93693 1.11859 6.04068 0.898705 7.12717 1.04329C8.21365 1.18788 9.22148 1.68877 9.9928 2.4675L8.3253 4.151C8.08394 3.90909 7.79714 3.71728 7.48139 3.58661C7.16564 3.45593 6.82717 3.38897 6.48545 3.38958C6.14373 3.39018 5.8055 3.45834 5.49021 3.59013C5.17492 3.72192 4.8888 3.91473 4.6483 4.1575C4.16083 4.64912 3.88733 5.31342 3.88733 6.00575C3.88733 6.69808 4.16083 7.36237 4.6483 7.854C4.8888 8.09676 5.17492 8.28958 5.49021 8.42137C5.8055 8.55316 6.14373 8.62131 6.48545 8.62192C6.82717 8.62252 7.16564 8.55556 7.48139 8.42489C7.79714 8.29421 8.08394 8.10241 8.3253 7.8605L9.9998 9.544C9.53771 10.0077 8.98823 10.3752 8.38316 10.6251C7.77809 10.875 7.12945 11.0025 6.4748 11Z" stroke="#9295A5" stroke-width="2" stroke-linecap="round" stroke-linejoin="round"/>
</svg>
