<svg width="16" height="16" viewBox="0 0 16 16" fill="none" xmlns="http://www.w3.org/2000/svg">
<path d="M8 8.75C8.41421 8.75 8.75 8.41421 8.75 8C8.75 7.58579 8.41421 7.25 8 7.25C7.58579 7.25 7.25 7.58579 7.25 8C7.25 8.41421 7.58579 8.75 8 8.75Z" fill="#089981"/>
<path d="M8 1.5C4.41594 1.5 1.5 4.41594 1.5 8C1.5 11.5841 4.41594 14.5 8 14.5C11.5841 14.5 14.5 11.5841 14.5 8C14.5 4.41594 11.5841 1.5 8 1.5ZM11.2834 5.04156L9.81844 8.70406C9.71784 8.9556 9.5672 9.18408 9.37564 9.37564C9.18408 9.5672 8.9556 9.71784 8.70406 9.81844L5.04156 11.2834C4.99613 11.3016 4.94636 11.3061 4.89842 11.2962C4.85048 11.2864 4.80649 11.2627 4.77188 11.2281C4.73728 11.1935 4.71359 11.1495 4.70376 11.1016C4.69393 11.0536 4.69838 11.0039 4.71656 10.9584L6.18156 7.29594C6.28216 7.0444 6.4328 6.81592 6.62436 6.62436C6.81592 6.4328 7.0444 6.28216 7.29594 6.18156L10.9584 4.71656C11.0039 4.69838 11.0536 4.69393 11.1016 4.70376C11.1495 4.71359 11.1935 4.73728 11.2281 4.77188C11.2627 4.80649 11.2864 4.85048 11.2962 4.89842C11.3061 4.94636 11.3016 4.99613 11.2834 5.04156Z" fill="#089981"/>
</svg>
