<svg width="23" height="20" viewBox="0 0 23 20" fill="none" xmlns="http://www.w3.org/2000/svg">
<g clip-path="url(#clip0_406_433)">
<path d="M2.36011 7.58V3.19C2.36011 1.7 3.57011 0.5 5.05011 0.5H18.2701C19.7601 0.5 20.9601 1.71 20.9601 3.19V5.18" stroke="white" stroke-linecap="round" stroke-linejoin="round"/>
<path d="M11.3701 16.2401H18.2801C19.7701 16.2401 20.9701 15.0301 20.9701 13.5501V11.5601" stroke="white" stroke-linecap="round" stroke-linejoin="round"/>
<path d="M18.7799 5.18994H21.9199V11.4699H18.7799C17.0499 11.4699 15.6399 10.0599 15.6399 8.32994C15.6399 6.59994 17.0499 5.18994 18.7799 5.18994Z" stroke="white" stroke-linecap="round" stroke-linejoin="round"/>
<path d="M6.03003 4.04004H9.94003" stroke="white" stroke-linecap="round" stroke-linejoin="round"/>
<path d="M4.86 12.7C7.26796 12.7 9.22 12.0464 9.22 11.24C9.22 10.4337 7.26796 9.78003 4.86 9.78003C2.45204 9.78003 0.5 10.4337 0.5 11.24C0.5 12.0464 2.45204 12.7 4.86 12.7Z" stroke="white" stroke-linecap="round" stroke-linejoin="round"/>
<path d="M9.22 14.16C9.22 14.97 7.27 15.62 4.86 15.62C2.45 15.62 0.5 14.97 0.5 14.16" stroke="white" stroke-linecap="round" stroke-linejoin="round"/>
<path d="M9.22 17.08C9.22 17.89 7.27 18.54 4.86 18.54C2.45 18.54 0.5 17.89 0.5 17.08" stroke="white" stroke-linecap="round" stroke-linejoin="round"/>
<path d="M0.5 17.08V11.24" stroke="white" stroke-linecap="round" stroke-linejoin="round"/>
<path d="M9.21997 17.08V11.24" stroke="white" stroke-linecap="round" stroke-linejoin="round"/>
</g>
<defs>
<clipPath id="clip0_406_433">
<rect width="22.42" height="19.04" fill="white"/>
</clipPath>
</defs>
</svg>
