<svg width="13" height="12" viewBox="0 0 13 12" fill="none" xmlns="http://www.w3.org/2000/svg">
<g clip-path="url(#clip0_426_3896)">
<path d="M2.39597 2.4375H9.89597C9.98357 2.43746 10.0711 2.44301 10.158 2.45414C10.1285 2.24737 10.0575 2.0487 9.94921 1.87012C9.84089 1.69154 9.69754 1.53674 9.52779 1.41506C9.35803 1.29338 9.1654 1.20734 8.96149 1.16212C8.75759 1.1169 8.54663 1.11344 8.34136 1.15195L2.17331 2.205H2.16628C1.77911 2.27904 1.43481 2.49809 1.2037 2.81742C1.55189 2.56976 1.96869 2.43695 2.39597 2.4375ZM9.89597 3H2.39597C1.99827 3.00043 1.617 3.15861 1.33579 3.43982C1.05457 3.72103 0.8964 4.10231 0.895966 4.5V9C0.8964 9.39769 1.05457 9.77897 1.33579 10.0602C1.617 10.3414 1.99827 10.4996 2.39597 10.5H9.89597C10.2937 10.4996 10.6749 10.3414 10.9561 10.0602C11.2374 9.77897 11.3955 9.39769 11.396 9V4.5C11.3955 4.10231 11.2374 3.72103 10.9561 3.43982C10.6749 3.15861 10.2937 3.00043 9.89597 3ZM8.78268 7.5C8.63435 7.5 8.48934 7.45601 8.36601 7.3736C8.24267 7.29119 8.14654 7.17406 8.08977 7.03701C8.03301 6.89997 8.01816 6.74917 8.0471 6.60368C8.07603 6.45819 8.14747 6.32456 8.25235 6.21967C8.35724 6.11478 8.49088 6.04335 8.63637 6.01441C8.78185 5.98547 8.93265 6.00032 9.0697 6.05709C9.20674 6.11385 9.32388 6.20998 9.40629 6.33332C9.4887 6.45666 9.53268 6.60166 9.53268 6.75C9.53268 6.94891 9.45367 7.13968 9.31301 7.28033C9.17236 7.42098 8.9816 7.5 8.78268 7.5Z" fill="#9295A5"/>
<path d="M0.907684 6.08203V3.75C0.907684 3.24211 1.18893 2.39062 2.16511 2.20617C2.99362 2.05078 3.81393 2.05078 3.81393 2.05078C3.81393 2.05078 4.353 2.42578 3.90768 2.42578C3.46237 2.42578 3.47409 3 3.90768 3C4.34128 3 3.90768 3.55078 3.90768 3.55078L2.16159 5.53125L0.907684 6.08203Z" fill="#9295A5"/>
</g>
<defs>
<clipPath id="clip0_426_3896">
<rect width="12" height="12" fill="white" transform="translate(0.157684)"/>
</clipPath>
</defs>
</svg>
