<svg width="32" height="32" viewBox="0 0 32 32" fill="none" xmlns="http://www.w3.org/2000/svg">
<path d="M24 11.9999H26.6667V5.33325H29.3333V11.9999C29.3333 12.7072 29.0524 13.3854 28.5523 13.8855C28.0522 14.3856 27.3739 14.6666 26.6667 14.6666H24V17.3333L20 13.3333L24 9.33325M18.6667 13.3333C18.6667 12.8058 18.5103 12.2903 18.2172 11.8517C17.9242 11.4132 17.5078 11.0714 17.0205 10.8696C16.5332 10.6677 15.997 10.6149 15.4798 10.7178C14.9625 10.8207 14.4873 11.0747 14.1144 11.4476C13.7414 11.8206 13.4875 12.2957 13.3846 12.813C13.2817 13.3303 13.3345 13.8665 13.5363 14.3537C13.7382 14.841 14.0799 15.2575 14.5185 15.5505C14.957 15.8435 15.4726 15.9999 16 15.9999C16.7072 15.9999 17.3855 15.719 17.8856 15.2189C18.3857 14.7188 18.6667 14.0405 18.6667 13.3333ZM2.66666 14.6666V21.3333H5.33333V14.6666H8V17.3333L12 13.3333L8 9.33325V11.9999H5.33333C4.62609 11.9999 3.94781 12.2809 3.44771 12.781C2.94762 13.2811 2.66666 13.9593 2.66666 14.6666ZM20 21.3333L16 17.3333L12 21.3333H14.6667V23.9999C14.6667 24.7072 14.9476 25.3854 15.4477 25.8855C15.9478 26.3856 16.6261 26.6666 17.3333 26.6666H24V23.9999H17.3333V21.3333" fill="white"/>
</svg>
