<svg width="24" height="24" viewBox="0 0 24 24" fill="none" xmlns="http://www.w3.org/2000/svg">
<path fill-rule="evenodd" clip-rule="evenodd" d="M11.47 17.0307C11.6107 17.1712 11.8013 17.2501 12 17.2501C12.1988 17.2501 12.3894 17.1712 12.53 17.0307L17.03 12.5307C17.1625 12.3886 17.2346 12.2005 17.2312 12.0062C17.2278 11.8119 17.1491 11.6265 17.0117 11.4891C16.8742 11.3517 16.6889 11.273 16.4946 11.2696C16.3003 11.2661 16.1122 11.3383 15.97 11.4707L12.75 14.6907V3.00073C12.75 2.80182 12.671 2.61105 12.5304 2.4704C12.3897 2.32975 12.1989 2.25073 12 2.25073C11.8011 2.25073 11.6104 2.32975 11.4697 2.4704C11.329 2.61105 11.25 2.80182 11.25 3.00073V14.6907L8.03003 11.4707C7.88786 11.3383 7.69981 11.2661 7.50551 11.2696C7.31121 11.273 7.12582 11.3517 6.98841 11.4891C6.851 11.6265 6.77228 11.8119 6.76886 12.0062C6.76543 12.2005 6.83755 12.3886 6.97003 12.5307L11.47 17.0307ZM3.00003 15.7501C3.19894 15.7501 3.38971 15.8291 3.53036 15.9697C3.67101 16.1104 3.75003 16.3012 3.75003 16.5001V18.7501C3.75003 19.1479 3.90807 19.5294 4.18937 19.8107C4.47067 20.092 4.85221 20.2501 5.25003 20.2501H18.75C19.1479 20.2501 19.5294 20.092 19.8107 19.8107C20.092 19.5294 20.25 19.1479 20.25 18.7501V16.5001C20.25 16.3012 20.329 16.1104 20.4697 15.9697C20.6104 15.8291 20.8011 15.7501 21 15.7501C21.1989 15.7501 21.3897 15.8291 21.5304 15.9697C21.671 16.1104 21.75 16.3012 21.75 16.5001V18.7501C21.75 19.5457 21.434 20.3088 20.8714 20.8714C20.3087 21.434 19.5457 21.7501 18.75 21.7501H5.25003C4.45438 21.7501 3.69132 21.434 3.12871 20.8714C2.5661 20.3088 2.25003 19.5457 2.25003 18.7501V16.5001C2.25003 16.3012 2.32905 16.1104 2.4697 15.9697C2.61035 15.8291 2.80112 15.7501 3.00003 15.7501Z" fill="white"/>
</svg>
