<svg width="16" height="16" viewBox="0 0 16 16" fill="none" xmlns="http://www.w3.org/2000/svg">
<path fill-rule="evenodd" clip-rule="evenodd" d="M10.5 1C9.84377 0.99993 9.19547 1.14338 8.60054 1.42031C8.0056 1.69723 7.47843 2.10093 7.05598 2.60309C6.63353 3.10526 6.32602 3.69374 6.15501 4.32729C5.98399 4.96085 5.95362 5.62413 6.066 6.27067C6.11067 6.53067 6.04467 6.74867 5.91867 6.87467L1.58533 11.2073C1.21048 11.5824 0.999936 12.091 1 12.6213V14.5C1 14.776 1.224 15 1.5 15H4C4.13261 15 4.25979 14.9473 4.35355 14.8536C4.44732 14.7598 4.5 14.6326 4.5 14.5V13.5H5.5C5.63261 13.5 5.75979 13.4473 5.85355 13.3536C5.94732 13.2598 6 13.1326 6 13V12H7C7.13256 11.9999 7.25965 11.9471 7.35333 11.8533L9.12533 10.0813C9.252 9.95533 9.47 9.88933 9.72933 9.93467C10.3433 10.0404 10.9725 10.0176 11.5771 9.86753C12.1818 9.71749 12.7487 9.44353 13.2419 9.06301C13.7352 8.68249 14.1441 8.2037 14.4427 7.65694C14.7413 7.11019 14.9231 6.50739 14.9767 5.88671C15.0302 5.26603 14.9543 4.641 14.7537 4.05119C14.5531 3.46137 14.2323 2.91963 13.8115 2.46027C13.3906 2.0009 12.879 1.63392 12.309 1.38256C11.739 1.13119 11.123 1.00092 10.5 1ZM10.5 3C10.3674 3 10.2402 3.05268 10.1464 3.14645C10.0527 3.24021 10 3.36739 10 3.5C10 3.63261 10.0527 3.75979 10.1464 3.85355C10.2402 3.94732 10.3674 4 10.5 4C10.8978 4 11.2794 4.15804 11.5607 4.43934C11.842 4.72064 12 5.10218 12 5.5C12 5.63261 12.0527 5.75979 12.1464 5.85355C12.2402 5.94732 12.3674 6 12.5 6C12.6326 6 12.7598 5.94732 12.8536 5.85355C12.9473 5.75979 13 5.63261 13 5.5C13 4.83696 12.7366 4.20107 12.2678 3.73223C11.7989 3.26339 11.163 3 10.5 3Z" fill="#FFC225"/>
</svg>
