<svg width="16" height="16" viewBox="0 0 16 16" fill="none" xmlns="http://www.w3.org/2000/svg">
<path fill-rule="evenodd" clip-rule="evenodd" d="M7.14623 7.64665C7.05259 7.7404 7 7.86748 7 7.99998C7 8.13248 7.05259 8.25956 7.14623 8.35331L12.1462 13.3533C12.192 13.4024 12.2472 13.4418 12.3085 13.4692C12.3699 13.4965 12.4361 13.5112 12.5032 13.5124C12.5703 13.5136 12.637 13.5012 12.6993 13.4761C12.7615 13.4509 12.8181 13.4135 12.8656 13.366C12.9131 13.3185 12.9505 13.262 12.9756 13.1997C13.0008 13.1375 13.0131 13.0708 13.012 13.0036C13.0108 12.9365 12.9961 12.8703 12.9687 12.809C12.9414 12.7476 12.902 12.6924 12.8529 12.6466L8.20623 7.99998L12.8529 3.35331C12.9412 3.25853 12.9893 3.13316 12.987 3.00363C12.9847 2.8741 12.9323 2.75051 12.8406 2.6589C12.749 2.56729 12.6254 2.51481 12.4959 2.51253C12.3664 2.51024 12.241 2.55833 12.1462 2.64665L7.14623 7.64665Z" fill="#089981"/>
<path fill-rule="evenodd" clip-rule="evenodd" d="M3.14623 7.64665C3.05259 7.7404 3 7.86748 3 7.99998C3 8.13248 3.05259 8.25956 3.14623 8.35331L8.14623 13.3533C8.192 13.4024 8.2472 13.4418 8.30853 13.4692C8.36987 13.4965 8.43608 13.5112 8.50321 13.5124C8.57035 13.5136 8.63703 13.5012 8.69929 13.4761C8.76155 13.4509 8.81811 13.4135 8.86558 13.366C8.91306 13.3185 8.95049 13.262 8.97564 13.1997C9.00079 13.1375 9.01314 13.0708 9.01195 13.0036C9.01077 12.9365 8.99608 12.8703 8.96875 12.809C8.94142 12.7476 8.90202 12.6924 8.85289 12.6466L4.20623 7.99998L8.85289 3.35331C8.94121 3.25853 8.9893 3.13316 8.98701 3.00363C8.98472 2.8741 8.93225 2.75051 8.84064 2.6589C8.74903 2.56729 8.62544 2.51481 8.49591 2.51253C8.36637 2.51024 8.24101 2.55833 8.14623 2.64665L3.14623 7.64665Z" fill="#089981"/>
</svg>
