<svg width="16" height="16" viewBox="0 0 16 16" fill="none" xmlns="http://www.w3.org/2000/svg">
<path d="M13.0773 4.32L13.0866 4.30867L10.42 2.14867L9.57998 3.18467L10.958 4.30067C10.6161 4.5084 10.3447 4.81417 10.179 5.17822C10.0132 5.54228 9.96085 5.94778 10.0286 6.342C10.1286 6.94133 10.5413 7.45933 11.0753 7.74933C11.672 8.074 12.1953 8.044 12.6606 7.87867L12.6506 12C12.6515 12.1104 12.6247 12.2192 12.5729 12.3167C12.521 12.4142 12.4457 12.4972 12.3537 12.5582C12.2617 12.6192 12.1559 12.6563 12.046 12.6662C11.936 12.676 11.8254 12.6583 11.724 12.6147C11.6446 12.5806 11.5726 12.5315 11.512 12.47C11.3878 12.3451 11.318 12.1761 11.318 12L11.3333 10.6667C11.334 10.4043 11.2827 10.1443 11.1823 9.90184C11.082 9.65937 10.9346 9.43919 10.7486 9.254C10.5629 9.06787 10.3423 8.92019 10.0995 8.81941C9.8566 8.71863 9.59625 8.66672 9.33331 8.66667H8.66665V3.33333C8.66665 2.97971 8.52617 2.64057 8.27612 2.39052C8.02607 2.14048 7.68693 2 7.33331 2H2.66665C2.31302 2 1.97389 2.14048 1.72384 2.39052C1.47379 2.64057 1.33331 2.97971 1.33331 3.33333V12.6667C1.33331 13.0203 1.47379 13.3594 1.72384 13.6095C1.97389 13.8595 2.31302 14 2.66665 14H7.33331C7.68693 14 8.02607 13.8595 8.27612 13.6095C8.52617 13.3594 8.66665 13.0203 8.66665 12.6667V10H9.33331C9.42442 10 9.51131 10.0173 9.59398 10.052C9.75256 10.1216 9.87901 10.2485 9.94798 10.4073C9.98246 10.4894 10.0001 10.5776 9.99998 10.6667L9.98398 12C9.98398 12.2707 10.0366 12.5327 10.1413 12.7787C10.242 13.018 10.3866 13.232 10.5686 13.4127C10.7537 13.5997 10.9742 13.748 11.2172 13.8488C11.4602 13.9496 11.7209 14.001 11.984 14C12.2555 14 12.5151 13.9476 12.7626 13.8427C13.0013 13.7427 13.216 13.598 13.3966 13.4153C13.5834 13.2301 13.7314 13.0095 13.8323 12.7666C13.9331 12.5236 13.9847 12.263 13.984 12L14 6C13.9991 5.66512 13.9142 5.3358 13.753 5.04227C13.5918 4.74874 13.3595 4.50039 13.0773 4.32ZM7.33331 5.33333H2.66665V3.33333H7.33331V5.33333ZM12 6.66667C11.8232 6.66667 11.6536 6.59643 11.5286 6.4714C11.4036 6.34638 11.3333 6.17681 11.3333 6C11.3333 5.82319 11.4036 5.65362 11.5286 5.5286C11.6536 5.40357 11.8232 5.33333 12 5.33333C12.1768 5.33333 12.3464 5.40357 12.4714 5.5286C12.5964 5.65362 12.6666 5.82319 12.6666 6C12.6666 6.17681 12.5964 6.34638 12.4714 6.4714C12.3464 6.59643 12.1768 6.66667 12 6.66667Z" fill="#9295A5"/>
</svg>
