<svg width="12" height="12" viewBox="0 0 12 12" fill="none" xmlns="http://www.w3.org/2000/svg">
<path fill-rule="evenodd" clip-rule="evenodd" d="M5.735 1.23498C5.80531 1.16475 5.90062 1.12531 6 1.12531C6.09938 1.12531 6.19469 1.16475 6.265 1.23498L8.515 3.48498C8.58124 3.55606 8.6173 3.65009 8.61559 3.74724C8.61387 3.84439 8.57452 3.93708 8.50581 4.00579C8.4371 4.07449 8.34441 4.11385 8.24726 4.11556C8.15011 4.11728 8.05609 4.08122 7.985 4.01498L6.375 2.40498V8.24998C6.375 8.34943 6.33549 8.44481 6.26516 8.51514C6.19484 8.58547 6.09946 8.62498 6 8.62498C5.90054 8.62498 5.80516 8.58547 5.73484 8.51514C5.66451 8.44481 5.625 8.34943 5.625 8.24998V2.40498L4.015 4.01498C3.94391 4.08122 3.84989 4.11728 3.75274 4.11556C3.65559 4.11385 3.5629 4.07449 3.49419 4.00579C3.42548 3.93708 3.38613 3.84439 3.38441 3.74724C3.3827 3.65009 3.41876 3.55606 3.485 3.48498L5.735 1.23498ZM1.5 7.87498C1.59946 7.87498 1.69484 7.91448 1.76517 7.98481C1.83549 8.05514 1.875 8.15052 1.875 8.24998V9.37498C1.875 9.57389 1.95402 9.76465 2.09467 9.9053C2.23532 10.046 2.42609 10.125 2.625 10.125H9.375C9.57391 10.125 9.76468 10.046 9.90533 9.9053C10.046 9.76465 10.125 9.57389 10.125 9.37498V8.24998C10.125 8.15052 10.1645 8.05514 10.2348 7.98481C10.3052 7.91448 10.4005 7.87498 10.5 7.87498C10.5995 7.87498 10.6948 7.91448 10.7652 7.98481C10.8355 8.05514 10.875 8.15052 10.875 8.24998V9.37498C10.875 9.7728 10.717 10.1543 10.4357 10.4356C10.1544 10.7169 9.77282 10.875 9.375 10.875H2.625C2.22718 10.875 1.84564 10.7169 1.56434 10.4356C1.28304 10.1543 1.125 9.7728 1.125 9.37498V8.24998C1.125 8.15052 1.16451 8.05514 1.23483 7.98481C1.30516 7.91448 1.40054 7.87498 1.5 7.87498Z" fill="white"/>
</svg>
