<svg width="36" height="36" viewBox="0 0 36 36" fill="none" xmlns="http://www.w3.org/2000/svg">
<path d="M2.25 13.0049V25.8749C2.25 27.0684 2.72411 28.2129 3.56802 29.0569C4.41193 29.9008 5.55653 30.3749 6.75 30.3749H29.25C30.4435 30.3749 31.5881 29.9008 32.432 29.0569C33.2759 28.2129 33.75 27.0684 33.75 25.8749V13.0049L20.358 21.2444C19.6489 21.6807 18.8326 21.9116 18 21.9116C17.1674 21.9116 16.3511 21.6807 15.642 21.2444L2.25 13.0049Z" fill="#089981"/>
<path d="M33.75 10.362V10.125C33.75 8.93153 33.2759 7.78693 32.432 6.94302C31.5881 6.09911 30.4435 5.625 29.25 5.625H6.75C5.55653 5.625 4.41193 6.09911 3.56802 6.94302C2.72411 7.78693 2.25 8.93153 2.25 10.125V10.362L16.821 19.329C17.1756 19.5471 17.5837 19.6626 18 19.6626C18.4163 19.6626 18.8244 19.5471 19.179 19.329L33.75 10.362Z" fill="#089981"/>
</svg>
