<svg width="20" height="20" viewBox="0 0 20 20" fill="none" xmlns="http://www.w3.org/2000/svg">
<path d="M15.625 10.625H16.875C17.0408 10.625 17.1997 10.5592 17.3169 10.4419C17.4342 10.3247 17.5 10.1658 17.5 10C17.5 9.83424 17.4342 9.67527 17.3169 9.55806C17.1997 9.44085 17.0408 9.375 16.875 9.375H15.625C15.4592 9.375 15.3003 9.44085 15.1831 9.55806C15.0658 9.67527 15 9.83424 15 10C15 10.1658 15.0658 10.3247 15.1831 10.4419C15.3003 10.5592 15.4592 10.625 15.625 10.625ZM10 5C10 4.83424 10.0658 4.67527 10.1831 4.55806C10.3003 4.44085 10.4592 4.375 10.625 4.375H16.875C17.0408 4.375 17.1997 4.44085 17.3169 4.55806C17.4342 4.67527 17.5 4.83424 17.5 5C17.5 5.16576 17.4342 5.32473 17.3169 5.44194C17.1997 5.55915 17.0408 5.625 16.875 5.625H10.625C10.4592 5.625 10.3003 5.55915 10.1831 5.44194C10.0658 5.32473 10 5.16576 10 5ZM10 15C10 14.8342 10.0658 14.6753 10.1831 14.5581C10.3003 14.4408 10.4592 14.375 10.625 14.375H16.875C17.0408 14.375 17.1997 14.4408 17.3169 14.5581C17.4342 14.6753 17.5 14.8342 17.5 15C17.5 15.1658 17.4342 15.3247 17.3169 15.4419C17.1997 15.5592 17.0408 15.625 16.875 15.625H10.625C10.4592 15.625 10.3003 15.5592 10.1831 15.4419C10.0658 15.3247 10 15.1658 10 15ZM3.125 5.625H4.375C4.54076 5.625 4.69973 5.55915 4.81694 5.44194C4.93415 5.32473 5 5.16576 5 5C5 4.83424 4.93415 4.67527 4.81694 4.55806C4.69973 4.44085 4.54076 4.375 4.375 4.375H3.125C2.95924 4.375 2.80027 4.44085 2.68306 4.55806C2.56585 4.67527 2.5 4.83424 2.5 5C2.5 5.16576 2.56585 5.32473 2.68306 5.44194C2.80027 5.55915 2.95924 5.625 3.125 5.625ZM4.375 15.625H3.125C2.95924 15.625 2.80027 15.5592 2.68306 15.4419C2.56585 15.3247 2.5 15.1658 2.5 15C2.5 14.8342 2.56585 14.6753 2.68306 14.5581C2.80027 14.4408 2.95924 14.375 3.125 14.375H4.375C4.54076 14.375 4.69973 14.4408 4.81694 14.5581C4.93415 14.6753 5 14.8342 5 15C5 15.1658 4.93415 15.3247 4.81694 15.4419C4.69973 15.5592 4.54076 15.625 4.375 15.625ZM2.5 10C2.5 9.83424 2.56585 9.67527 2.68306 9.55806C2.80027 9.44085 2.95924 9.375 3.125 9.375H9.375C9.54076 9.375 9.69973 9.44085 9.81694 9.55806C9.93415 9.67527 10 9.83424 10 10C10 10.1658 9.93415 10.3247 9.81694 10.4419C9.69973 10.5592 9.54076 10.625 9.375 10.625H3.125C2.95924 10.625 2.80027 10.5592 2.68306 10.4419C2.56585 10.3247 2.5 10.1658 2.5 10ZM7.5 3.125C7.00272 3.125 6.52581 3.32254 6.17417 3.67417C5.82254 4.02581 5.625 4.50272 5.625 5C5.625 5.49728 5.82254 5.97419 6.17417 6.32582C6.52581 6.67746 7.00272 6.875 7.5 6.875C7.99728 6.875 8.47419 6.67746 8.82582 6.32582C9.17746 5.97419 9.375 5.49728 9.375 5C9.375 4.50272 9.17746 4.02581 8.82582 3.67417C8.47419 3.32254 7.99728 3.125 7.5 3.125ZM10.625 10C10.625 9.50272 10.8225 9.02581 11.1742 8.67417C11.5258 8.32254 12.0027 8.125 12.5 8.125C12.9973 8.125 13.4742 8.32254 13.8258 8.67417C14.1775 9.02581 14.375 9.50272 14.375 10C14.375 10.4973 14.1775 10.9742 13.8258 11.3258C13.4742 11.6775 12.9973 11.875 12.5 11.875C12.0027 11.875 11.5258 11.6775 11.1742 11.3258C10.8225 10.9742 10.625 10.4973 10.625 10ZM7.5 13.125C7.00272 13.125 6.52581 13.3225 6.17417 13.6742C5.82254 14.0258 5.625 14.5027 5.625 15C5.625 15.4973 5.82254 15.9742 6.17417 16.3258C6.52581 16.6775 7.00272 16.875 7.5 16.875C7.99728 16.875 8.47419 16.6775 8.82582 16.3258C9.17746 15.9742 9.375 15.4973 9.375 15C9.375 14.5027 9.17746 14.0258 8.82582 13.6742C8.47419 13.3225 7.99728 13.125 7.5 13.125Z" fill="#089981"/>
</svg>
