<svg width="20" height="22" viewBox="0 0 20 22" fill="none" xmlns="http://www.w3.org/2000/svg">
<path d="M11.0485 9.33147H19M19 9.33147L16.75 7.12261M19 9.33147L16.75 11.5403M14.8932 12.827V16.2047C14.8932 17.0196 14.216 17.6844 13.3859 17.6844H9.00607M14.8932 5.85734V2.47972C14.8932 1.6648 14.216 1 13.3859 1H2.50728C1.67718 1 1 1.6648 1 2.47972M6.69053 20.8047L1.46966 17.9417C1.17476 17.7809 1 17.4807 1 17.159V2.53333C1 1.84709 1.75364 1.40746 2.36529 1.75058L8.20874 4.95664C8.70024 5.22471 9.00607 5.7394 9.00607 6.29697V19.4643C9.00607 20.6331 7.72816 21.373 6.69053 20.8047Z" stroke="white" stroke-linecap="round" stroke-linejoin="round"/>
</svg>
