<svg width="22" height="22" viewBox="0 0 22 22" fill="none" xmlns="http://www.w3.org/2000/svg">
<path d="M2.37025 21.4985H19.6161C20.3773 21.4985 20.9863 20.8895 20.9863 20.1282V12.1697C20.9863 11.4084 20.3773 10.7994 19.6161 10.7994H13.8859C13.4292 10.7994 13.0001 10.5641 12.7371 10.1904L11.2146 7.89282C10.9655 7.50527 10.5364 7.28381 10.0658 7.28381H2.37025C1.609 7.28381 1 7.89281 1 8.65407V20.1282C1 20.8895 1.609 21.4985 2.37025 21.4985Z" stroke="white" stroke-miterlimit="10"/>
<path d="M1 8.39103V5.04153C1 4.3218 1.58132 3.74048 2.30105 3.74048H3.92044" stroke="white" stroke-miterlimit="10"/>
<path d="M3.92065 7.26994V2.218C3.92065 1.55364 4.46045 1 5.13866 1H15.2149C15.8792 1 16.4329 1.5398 16.4329 2.218V5.47062" stroke="white" stroke-miterlimit="10"/>
<path d="M6.49463 7.26998V6.57793C6.49463 5.87204 7.06211 5.30457 7.76799 5.30457H17.7196C18.4255 5.30457 18.993 5.87204 18.993 6.57793V10.7856" stroke="white" stroke-miterlimit="10"/>
<path d="M16.4187 3.74048H19.7128C20.4187 3.74048 21 4.3218 21 5.02769V12.5433" stroke="white" stroke-miterlimit="10"/>
<path d="M12.7371 14.0382H18.7025" stroke="white" stroke-linecap="round" stroke-linejoin="round"/>
<path d="M12.7371 16.585H18.7025" stroke="white" stroke-linecap="round" stroke-linejoin="round"/>
</svg>
