<svg width="20" height="20" viewBox="0 0 20 20" fill="none" xmlns="http://www.w3.org/2000/svg">
<path d="M10 1.66669C10.442 1.66669 10.8659 1.84228 11.1785 2.15484C11.4911 2.4674 11.6667 2.89133 11.6667 3.33335C11.6667 3.95002 11.3333 4.49169 10.8333 4.77502V5.83335H11.6667C13.2138 5.83335 14.6975 6.44794 15.7915 7.5419C16.8854 8.63586 17.5 10.1196 17.5 11.6667H18.3333C18.5543 11.6667 18.7663 11.7545 18.9226 11.9108C19.0789 12.067 19.1667 12.279 19.1667 12.5V15C19.1667 15.221 19.0789 15.433 18.9226 15.5893C18.7663 15.7456 18.5543 15.8334 18.3333 15.8334H17.5V16.6667C17.5 17.1087 17.3244 17.5326 17.0118 17.8452C16.6993 18.1578 16.2754 18.3334 15.8333 18.3334H4.16666C3.72463 18.3334 3.30071 18.1578 2.98815 17.8452C2.67559 17.5326 2.49999 17.1087 2.49999 16.6667V15.8334H1.66666C1.44565 15.8334 1.23369 15.7456 1.07741 15.5893C0.921126 15.433 0.833328 15.221 0.833328 15V12.5C0.833328 12.279 0.921126 12.067 1.07741 11.9108C1.23369 11.7545 1.44565 11.6667 1.66666 11.6667H2.49999C2.49999 10.1196 3.11458 8.63586 4.20854 7.5419C5.3025 6.44794 6.78623 5.83335 8.33333 5.83335H9.16666V4.77502C8.66666 4.49169 8.33333 3.95002 8.33333 3.33335C8.33333 2.89133 8.50892 2.4674 8.82148 2.15484C9.13404 1.84228 9.55797 1.66669 10 1.66669ZM6.25 10.8334C5.69746 10.8334 5.16756 11.0528 4.77686 11.4435C4.38616 11.8342 4.16666 12.3642 4.16666 12.9167C4.16666 13.4692 4.38616 13.9991 4.77686 14.3898C5.16756 14.7805 5.69746 15 6.25 15C6.80253 15 7.33243 14.7805 7.72313 14.3898C8.11384 13.9991 8.33333 13.4692 8.33333 12.9167C8.33333 12.3642 8.11384 11.8342 7.72313 11.4435C7.33243 11.0528 6.80253 10.8334 6.25 10.8334ZM13.75 10.8334C13.1975 10.8334 12.6676 11.0528 12.2769 11.4435C11.8862 11.8342 11.6667 12.3642 11.6667 12.9167C11.6667 13.4692 11.8862 13.9991 12.2769 14.3898C12.6676 14.7805 13.1975 15 13.75 15C14.3025 15 14.8324 14.7805 15.2231 14.3898C15.6138 13.9991 15.8333 13.4692 15.8333 12.9167C15.8333 12.3642 15.6138 11.8342 15.2231 11.4435C14.8324 11.0528 14.3025 10.8334 13.75 10.8334Z" fill="#9295A5"/>
</svg>
