<svg width="21" height="21" viewBox="0 0 21 21" fill="none" xmlns="http://www.w3.org/2000/svg">
<path d="M11.5311 3.50263H1M11.5311 3.50263C11.5311 4.8848 12.6516 6.00527 14.0337 6.00527C15.4159 6.00527 16.5364 4.8848 16.5364 3.50263M11.5311 3.50263C11.5311 2.12047 12.6516 1 14.0337 1C15.4159 1 16.5364 2.12047 16.5364 3.50263M20 3.50263H16.5364M9.46892 10.5901H20M9.46892 10.5901C9.46892 11.9723 8.34845 13.0927 6.96628 13.0927C5.58411 13.0927 4.46365 11.9723 4.46365 10.5901M9.46892 10.5901C9.46892 9.20793 8.34845 8.08746 6.96628 8.08746C5.58411 8.08746 4.46365 9.20793 4.46365 10.5901M1 10.5901H4.46365M11.5311 17.6675H1M11.5311 17.6675C11.5311 19.0497 12.6516 20.1702 14.0337 20.1702C15.4159 20.1702 16.5364 19.0497 16.5364 17.6675M11.5311 17.6675C11.5311 16.2854 12.6516 15.1649 14.0337 15.1649C15.4159 15.1649 16.5364 16.2854 16.5364 17.6675M20 17.6675H16.5364" stroke="white" stroke-linecap="round" stroke-linejoin="round"/>
</svg>
