<svg width="16" height="16" viewBox="0 0 16 16" fill="none" xmlns="http://www.w3.org/2000/svg">
<path fill-rule="evenodd" clip-rule="evenodd" d="M3.5 6C3.5 4.80653 3.97411 3.66193 4.81802 2.81802C5.66194 1.97411 6.80653 1.5 8 1.5C9.19348 1.5 10.3381 1.97411 11.182 2.81802C12.0259 3.66193 12.5 4.80653 12.5 6V6.5C12.5 7.91533 13.0333 9.20467 13.912 10.18C13.9667 10.2407 14.0058 10.3138 14.0257 10.393C14.0456 10.4723 14.0458 10.5552 14.0263 10.6345C14.0067 10.7139 13.9681 10.7872 13.9136 10.8481C13.8592 10.909 13.7906 10.9557 13.714 10.984C12.6847 11.364 11.6073 11.644 10.4933 11.8127C10.5184 12.1554 10.4726 12.4997 10.3586 12.8239C10.2447 13.1482 10.0651 13.4454 9.83114 13.6972C9.59716 13.9489 9.31379 14.1497 8.99873 14.287C8.68367 14.4243 8.34368 14.4951 8 14.4951C7.65632 14.4951 7.31634 14.4243 7.00128 14.287C6.68621 14.1497 6.40284 13.9489 6.16886 13.6972C5.93488 13.4454 5.75532 13.1482 5.64138 12.8239C5.52745 12.4997 5.48159 12.1554 5.50667 11.8127C4.40777 11.6461 3.32866 11.3683 2.286 10.9833C2.20942 10.9551 2.14093 10.9085 2.08651 10.8476C2.03209 10.7868 1.99339 10.7136 1.97379 10.6343C1.95419 10.5551 1.9543 10.4722 1.97409 10.393C1.99388 10.3138 2.03276 10.2407 2.08734 10.18C2.99854 9.17112 3.50205 7.85946 3.5 6.5V6ZM6.50134 11.9333C6.49281 12.1355 6.52525 12.3372 6.59672 12.5265C6.6682 12.7157 6.77721 12.8886 6.91722 13.0346C7.05722 13.1807 7.22532 13.2969 7.4114 13.3763C7.59748 13.4556 7.7977 13.4966 8 13.4966C8.20231 13.4966 8.40252 13.4556 8.5886 13.3763C8.77468 13.2969 8.94278 13.1807 9.08279 13.0346C9.22279 12.8886 9.33181 12.7157 9.40328 12.5265C9.47475 12.3372 9.5072 12.1355 9.49867 11.9333C8.50158 12.0232 7.49843 12.0232 6.50134 11.9333Z" fill="#9295A5"/>
</svg>
