<svg width="16" height="16" viewBox="0 0 16 16" fill="none" xmlns="http://www.w3.org/2000/svg">
<path fill-rule="evenodd" clip-rule="evenodd" d="M4.22 11.78C4.07955 11.6394 4.00066 11.4487 4.00066 11.25C4.00066 11.0512 4.07955 10.8606 4.22 10.72L9.44 5.49999H5.75C5.55109 5.49999 5.36032 5.42097 5.21967 5.28032C5.07902 5.13967 5 4.9489 5 4.74999C5 4.55108 5.07902 4.36031 5.21967 4.21966C5.36032 4.07901 5.55109 3.99999 5.75 3.99999H11.25C11.4489 3.99999 11.6397 4.07901 11.7803 4.21966C11.921 4.36031 12 4.55108 12 4.74999V10.25C12 10.4489 11.921 10.6397 11.7803 10.7803C11.6397 10.921 11.4489 11 11.25 11C11.0511 11 10.8603 10.921 10.7197 10.7803C10.579 10.6397 10.5 10.4489 10.5 10.25V6.55999L5.28 11.78C5.13937 11.9204 4.94875 11.9993 4.75 11.9993C4.55125 11.9993 4.36063 11.9204 4.22 11.78Z" fill="#089981"/>
</svg>
