<svg width="16" height="16" viewBox="0 0 16 16" fill="none" xmlns="http://www.w3.org/2000/svg">
<path fill-rule="evenodd" clip-rule="evenodd" d="M5 3.5C5 2.96957 5.21071 2.46086 5.58579 2.08579C5.96086 1.71071 6.46957 1.5 7 1.5H9C9.53043 1.5 10.0391 1.71071 10.4142 2.08579C10.7893 2.46086 11 2.96957 11 3.5V3.63667C11.622 3.69333 12.238 3.768 12.8493 3.85933C13.8187 4.00467 14.5 4.848 14.5 5.804V7.826C14.5 8.63333 14.0107 9.394 13.2093 9.66067C11.5292 10.2184 9.77025 10.5018 8 10.5C6.18 10.5 4.42867 10.2053 2.79067 9.66067C1.98933 9.394 1.5 8.63333 1.5 7.826V5.804C1.5 4.848 2.18133 4.004 3.15067 3.85933C3.76486 3.76748 4.38156 3.69323 5 3.63667V3.5ZM10 3.5V3.56C8.66789 3.4791 7.33211 3.4791 6 3.56V3.5C6 3.23478 6.10536 2.98043 6.29289 2.79289C6.48043 2.60536 6.73478 2.5 7 2.5H9C9.26522 2.5 9.51957 2.60536 9.70711 2.79289C9.89464 2.98043 10 3.23478 10 3.5ZM8 9C8.13261 9 8.25979 8.94732 8.35355 8.85355C8.44732 8.75979 8.5 8.63261 8.5 8.5C8.5 8.36739 8.44732 8.24022 8.35355 8.14645C8.25979 8.05268 8.13261 8 8 8C7.86739 8 7.74022 8.05268 7.64645 8.14645C7.55268 8.24022 7.5 8.36739 7.5 8.5C7.5 8.63261 7.55268 8.75979 7.64645 8.85355C7.74022 8.94732 7.86739 9 8 9Z" fill="#089981"/>
<path d="M2 12.2666V10.4026C2.15188 10.4857 2.31097 10.5549 2.47533 10.6093C4.25712 11.2009 6.12257 11.5016 8 11.5C9.928 11.5 11.7867 11.188 13.5247 10.61C13.6927 10.554 13.8513 10.484 14 10.4026V12.2666C14 13.2346 13.302 14.0853 12.318 14.2153C10.9047 14.4033 9.46333 14.5 8 14.5C6.55597 14.5003 5.1135 14.4052 3.682 14.2153C2.698 14.0853 2 13.2346 2 12.2666Z" fill="#089981"/>
</svg>
