<svg width="16" height="16" viewBox="0 0 16 16" fill="none" xmlns="http://www.w3.org/2000/svg">
<path d="M7.99991 1.33331C8.1632 1.33333 8.3208 1.39328 8.44283 1.50179C8.56485 1.6103 8.64281 1.75981 8.66191 1.92198L8.66658 1.99998V2.03665C9.98816 2.18481 11.2231 2.7676 12.1777 3.69355C13.1322 4.6195 13.7523 5.83618 13.9406 7.15265L13.9632 7.33331H13.9999C14.1698 7.3335 14.3333 7.39857 14.4568 7.51521C14.5804 7.63186 14.6547 7.79128 14.6647 7.96091C14.6747 8.13054 14.6195 8.29757 14.5104 8.42787C14.4013 8.55817 14.2466 8.64191 14.0779 8.66198L13.9999 8.66665H13.9632C13.8151 9.98823 13.2323 11.2232 12.3063 12.1777C11.3804 13.1323 10.1637 13.7524 8.84725 13.9406L8.66658 13.9633V14C8.66639 14.1699 8.60133 14.3333 8.48468 14.4569C8.36803 14.5804 8.20861 14.6548 8.03898 14.6648C7.86935 14.6747 7.70233 14.6195 7.57202 14.5105C7.44172 14.4014 7.35798 14.2467 7.33791 14.078L7.33325 14V13.9633C6.01166 13.8151 4.77669 13.2324 3.82214 12.3064C2.8676 11.3805 2.24753 10.1638 2.05925 8.84731L2.03658 8.66665H1.99991C1.82999 8.66646 1.66656 8.60139 1.543 8.48475C1.41944 8.3681 1.34509 8.20868 1.33513 8.03905C1.32517 7.86942 1.38036 7.70239 1.48942 7.57209C1.59848 7.44179 1.75318 7.35805 1.92191 7.33798L1.99991 7.33331H2.03658C2.18475 6.01173 2.76754 4.77675 3.69348 3.82221C4.61943 2.86767 5.83611 2.2476 7.15258 2.05931L7.33325 2.03665V1.99998C7.33325 1.82317 7.40348 1.6536 7.52851 1.52858C7.65353 1.40355 7.8231 1.33331 7.99991 1.33331ZM7.99991 4.66665C7.11586 4.66665 6.26801 5.01784 5.64289 5.64296C5.01777 6.26808 4.66658 7.11592 4.66658 7.99998C4.66658 8.88403 5.01777 9.73188 5.64289 10.357C6.26801 10.9821 7.11586 11.3333 7.99991 11.3333C8.88397 11.3333 9.73181 10.9821 10.3569 10.357C10.9821 9.73188 11.3332 8.88403 11.3332 7.99998C11.3332 7.11592 10.9821 6.26808 10.3569 5.64296C9.73181 5.01784 8.88397 4.66665 7.99991 4.66665ZM7.99991 5.99998C8.53035 5.99998 9.03905 6.21069 9.41413 6.58577C9.7892 6.96084 9.99991 7.46955 9.99991 7.99998C9.99991 8.53041 9.7892 9.03912 9.41413 9.41419C9.03905 9.78927 8.53035 9.99998 7.99991 9.99998C7.46948 9.99998 6.96077 9.78927 6.5857 9.41419C6.21063 9.03912 5.99991 8.53041 5.99991 7.99998C5.99991 7.46955 6.21063 6.96084 6.5857 6.58577C6.96077 6.21069 7.46948 5.99998 7.99991 5.99998Z" fill="#089981"/>
</svg>
