<svg width="20" height="20" viewBox="0 0 20 20" fill="none" xmlns="http://www.w3.org/2000/svg">
<path d="M9.72919 0H9.74512C15.1175 0 19.4743 4.35683 19.4743 9.72919V10.2708C19.4743 15.6432 15.1175 20 9.74512 20H9.72919C4.35683 20 0 15.6432 0 10.2708V9.72919C0 4.35683 4.35683 0 9.72919 0Z" fill="#232323"/>
<path d="M13.8988 7.52676C13.8669 7.5626 13.8271 7.59048 13.7833 7.60641C13.7395 7.62632 13.6917 7.63428 13.6439 7.63428H4.62358C4.30498 7.63428 4.1417 7.23604 4.36471 6.99709L5.8462 5.42401C5.87806 5.38817 5.91788 5.36029 5.96567 5.34038C6.00948 5.32047 6.05727 5.3125 6.10506 5.3125H15.1612C15.4838 5.3125 15.6431 5.71473 15.4161 5.95368L13.8988 7.52676ZM13.8988 14.5598C13.8311 14.6275 13.7395 14.6673 13.6439 14.6673H4.62358C4.30498 14.6673 4.1417 14.2771 4.36471 14.0461L5.8462 12.5088C5.87806 12.473 5.92186 12.4451 5.96567 12.4292C6.00948 12.4093 6.05727 12.4013 6.10506 12.4013H15.1612C15.4838 12.4013 15.6431 12.7956 15.4161 13.0266L13.8988 14.5598ZM13.8988 8.96443C13.8311 8.89673 13.7395 8.8569 13.6439 8.8569H4.62358C4.30498 8.8569 4.1417 9.24719 4.36471 9.47817L5.8462 11.0154C5.87806 11.0512 5.92186 11.0791 5.96567 11.0951C6.00948 11.115 6.05727 11.1229 6.10506 11.1229H15.1612C15.4838 11.1229 15.6431 10.7287 15.4161 10.4977L13.8988 8.96443Z" fill="url(#paint0_linear_199_2331)"/>
<defs>
<linearGradient id="paint0_linear_199_2331" x1="4.9503" y1="14.7841" x2="14.8043" y2="5.19038" gradientUnits="userSpaceOnUse">
<stop stop-color="#CF41E8"/>
<stop offset="1" stop-color="#10F2B0"/>
</linearGradient>
</defs>
</svg>
