<svg width="16" height="16" viewBox="0 0 16 16" fill="none" xmlns="http://www.w3.org/2000/svg">
<path fill-rule="evenodd" clip-rule="evenodd" d="M1.5 8C1.5 4.41 4.41 1.5 8 1.5C11.59 1.5 14.5 4.41 14.5 8C14.5 11.59 11.59 14.5 8 14.5C4.41 14.5 1.5 11.59 1.5 8ZM9.08533 5.38867C8.492 4.87067 7.508 4.87067 6.91533 5.38867C6.81552 5.47601 6.6851 5.52013 6.55277 5.51132C6.42043 5.5025 6.29701 5.44148 6.20967 5.34167C6.12232 5.24186 6.0782 5.11144 6.08702 4.9791C6.09583 4.84676 6.15686 4.72334 6.25667 4.636C7.226 3.788 8.774 3.788 9.74333 4.636C10.752 5.51867 10.752 6.98133 9.74333 7.864C9.57464 8.01109 9.38697 8.13486 9.18533 8.232C8.73467 8.45067 8.5 8.748 8.5 9V9.5C8.5 9.63261 8.44732 9.75979 8.35355 9.85355C8.25979 9.94732 8.13261 10 8 10C7.86739 10 7.74022 9.94732 7.64645 9.85355C7.55268 9.75979 7.5 9.63261 7.5 9.5V9C7.5 8.14733 8.20667 7.59533 8.75 7.332C8.87133 7.27333 8.984 7.19933 9.08533 7.11133C9.63867 6.62667 9.63867 5.87333 9.08533 5.38867ZM8 12C8.13261 12 8.25979 11.9473 8.35355 11.8536C8.44732 11.7598 8.5 11.6326 8.5 11.5C8.5 11.3674 8.44732 11.2402 8.35355 11.1464C8.25979 11.0527 8.13261 11 8 11C7.86739 11 7.74022 11.0527 7.64645 11.1464C7.55268 11.2402 7.5 11.3674 7.5 11.5C7.5 11.6326 7.55268 11.7598 7.64645 11.8536C7.74022 11.9473 7.86739 12 8 12Z" fill="#089981"/>
</svg>
