<svg width="36" height="36" viewBox="0 0 36 36" fill="none" xmlns="http://www.w3.org/2000/svg">
<path fill-rule="evenodd" clip-rule="evenodd" d="M29.6655 6.64495C30.0362 6.48893 30.4419 6.43513 30.8405 6.48912C31.239 6.54312 31.6158 6.70295 31.9316 6.95198C32.2474 7.201 32.4906 7.53012 32.6361 7.90507C32.7815 8.28003 32.8238 8.68711 32.7585 9.08395L29.3565 29.7194C29.0265 31.7099 26.8425 32.8514 25.017 31.8599C23.49 31.0304 21.222 29.7524 19.182 28.4189C18.162 27.7514 15.0375 25.6139 15.4215 24.0929C15.7515 22.7924 21.0015 17.9054 24.0015 14.9999C25.179 13.8584 24.642 13.1999 23.2515 14.2499C19.7985 16.8569 14.2545 20.8214 12.4215 21.9374C10.8045 22.9214 9.96153 23.0894 8.95353 22.9214C7.11453 22.6154 5.40903 22.1414 4.01703 21.5639C2.13603 20.7839 2.22753 18.1979 4.01553 17.4449L29.6655 6.64495Z" fill="#089981"/>
</svg>
