<svg width="24" height="24" viewBox="0 0 24 24" fill="none" xmlns="http://www.w3.org/2000/svg">
<path fill-rule="evenodd" clip-rule="evenodd" d="M11.47 2.47007C11.6107 2.32962 11.8013 2.25073 12 2.25073C12.1988 2.25073 12.3894 2.32962 12.53 2.47007L17.03 6.97007C17.1625 7.11225 17.2346 7.30029 17.2312 7.4946C17.2278 7.6889 17.1491 7.87428 17.0117 8.01169C16.8742 8.14911 16.6889 8.22782 16.4946 8.23125C16.3003 8.23468 16.1122 8.16255 15.97 8.03007L12.75 4.81007V16.5001C12.75 16.699 12.671 16.8898 12.5304 17.0304C12.3897 17.1711 12.1989 17.2501 12 17.2501C11.8011 17.2501 11.6104 17.1711 11.4697 17.0304C11.329 16.8898 11.25 16.699 11.25 16.5001V4.81007L8.03003 8.03007C7.88786 8.16255 7.69981 8.23468 7.50551 8.23125C7.31121 8.22782 7.12582 8.14911 6.98841 8.01169C6.851 7.87428 6.77228 7.6889 6.76886 7.4946C6.76543 7.30029 6.83755 7.11225 6.97003 6.97007L11.47 2.47007ZM3.00003 15.7501C3.19894 15.7501 3.38971 15.8291 3.53036 15.9697C3.67101 16.1104 3.75003 16.3012 3.75003 16.5001V18.7501C3.75003 19.1479 3.90807 19.5294 4.18937 19.8107C4.47067 20.092 4.85221 20.2501 5.25003 20.2501H18.75C19.1479 20.2501 19.5294 20.092 19.8107 19.8107C20.092 19.5294 20.25 19.1479 20.25 18.7501V16.5001C20.25 16.3012 20.329 16.1104 20.4697 15.9697C20.6104 15.8291 20.8011 15.7501 21 15.7501C21.1989 15.7501 21.3897 15.8291 21.5304 15.9697C21.671 16.1104 21.75 16.3012 21.75 16.5001V18.7501C21.75 19.5457 21.434 20.3088 20.8714 20.8714C20.3087 21.434 19.5457 21.7501 18.75 21.7501H5.25003C4.45438 21.7501 3.69132 21.434 3.12871 20.8714C2.5661 20.3088 2.25003 19.5457 2.25003 18.7501V16.5001C2.25003 16.3012 2.32905 16.1104 2.4697 15.9697C2.61035 15.8291 2.80112 15.7501 3.00003 15.7501Z" fill="white"/>
</svg>
