<svg width="14" height="14" viewBox="0 0 14 14" fill="none" xmlns="http://www.w3.org/2000/svg">
<path fill-rule="evenodd" clip-rule="evenodd" d="M7 0.5C7.13261 0.5 7.25979 0.552678 7.35355 0.646447C7.44732 0.740215 7.5 0.867392 7.5 1V8.79333L9.64667 6.64667C9.69244 6.59754 9.74764 6.55814 9.80897 6.53081C9.87031 6.50348 9.93652 6.48879 10.0037 6.48761C10.0708 6.48642 10.1375 6.49877 10.1997 6.52392C10.262 6.54907 10.3185 6.5865 10.366 6.63398C10.4135 6.68145 10.4509 6.73801 10.4761 6.80027C10.5012 6.86253 10.5136 6.92921 10.5124 6.99635C10.5112 7.06348 10.4965 7.12969 10.4692 7.19103C10.4419 7.25236 10.4025 7.30756 10.3533 7.35333L7.35333 10.3533C7.25958 10.447 7.1325 10.4996 7 10.4996C6.8675 10.4996 6.74042 10.447 6.64667 10.3533L3.64667 7.35333C3.59754 7.30756 3.55814 7.25236 3.53081 7.19103C3.50348 7.12969 3.48879 7.06348 3.48761 6.99635C3.48642 6.92921 3.49877 6.86253 3.52392 6.80027C3.54907 6.73801 3.5865 6.68145 3.63397 6.63398C3.68145 6.5865 3.73801 6.54907 3.80027 6.52392C3.86253 6.49877 3.92921 6.48642 3.99635 6.48761C4.06348 6.48879 4.12969 6.50348 4.19103 6.53081C4.25236 6.55814 4.30756 6.59754 4.35333 6.64667L6.5 8.79333V1C6.5 0.867392 6.55268 0.740215 6.64645 0.646447C6.74022 0.552678 6.86739 0.5 7 0.5ZM1 9.5C1.13261 9.5 1.25979 9.55268 1.35355 9.64645C1.44732 9.74022 1.5 9.86739 1.5 10V11.5C1.5 11.7652 1.60536 12.0196 1.79289 12.2071C1.98043 12.3946 2.23478 12.5 2.5 12.5H11.5C11.7652 12.5 12.0196 12.3946 12.2071 12.2071C12.3946 12.0196 12.5 11.7652 12.5 11.5V10C12.5 9.86739 12.5527 9.74022 12.6464 9.64645C12.7402 9.55268 12.8674 9.5 13 9.5C13.1326 9.5 13.2598 9.55268 13.3536 9.64645C13.4473 9.74022 13.5 9.86739 13.5 10V11.5C13.5 12.0304 13.2893 12.5391 12.9142 12.9142C12.5391 13.2893 12.0304 13.5 11.5 13.5H2.5C1.96957 13.5 1.46086 13.2893 1.08579 12.9142C0.710714 12.5391 0.5 12.0304 0.5 11.5V10C0.5 9.86739 0.552678 9.74022 0.646447 9.64645C0.740215 9.55268 0.867392 9.5 1 9.5Z" fill="#FFC225"/>
</svg>
