<svg width="24" height="18" viewBox="0 0 24 18" fill="none" xmlns="http://www.w3.org/2000/svg">
<g clip-path="url(#clip0_332_4058)">
<path fill-rule="evenodd" clip-rule="evenodd" d="M0 0V18H24V0H0Z" fill="#2E42A5"/>
<mask id="mask0_332_4058" style="mask-type:luminance" maskUnits="userSpaceOnUse" x="0" y="0" width="24" height="18">
<path fill-rule="evenodd" clip-rule="evenodd" d="M0 0V18H24V0H0Z" fill="white"/>
</mask>
<g mask="url(#mask0_332_4058)">
<path d="M-2.67188 16.7137L2.60962 18.948L24.1196 2.42848L26.9059 -0.891018L21.2584 -1.63727L12.4849 5.48098L5.42288 10.278L-2.67188 16.7137Z" fill="white"/>
<path d="M-1.9502 18.279L0.741555 19.575L25.9048 -1.19928H22.1271L-1.9502 18.279Z" fill="#F50100"/>
<path d="M26.6725 16.7137L21.391 18.948L-0.119023 2.42848L-2.90527 -0.891018L2.74223 -1.63727L11.5157 5.48098L18.5777 10.278L26.6725 16.7137Z" fill="white"/>
<path d="M26.4924 17.8372L23.8014 19.1332L13.0869 10.2382L9.90992 9.24524L-3.17383 -0.879761H0.604672L13.6802 9.00524L17.1534 10.1962L26.4924 17.8372Z" fill="#F50100"/>
<path fill-rule="evenodd" clip-rule="evenodd" d="M14.834 -1.5H9.16698V6H-1.47852V12H9.16698V19.5H14.834V12H25.5215V6H14.834V-1.5Z" fill="#F50100"/>
<mask id="mask1_332_4058" style="mask-type:luminance" maskUnits="userSpaceOnUse" x="-2" y="-2" width="28" height="22">
<path fill-rule="evenodd" clip-rule="evenodd" d="M14.834 -1.5H9.16698V6H-1.47852V12H9.16698V19.5H14.834V12H25.5215V6H14.834V-1.5Z" fill="white"/>
</mask>
<g mask="url(#mask1_332_4058)">
<path d="M9.16698 -1.5V-3H7.66698V-1.5H9.16698ZM14.834 -1.5H16.334V-3H14.834V-1.5ZM9.16698 6V7.5H10.667V6H9.16698ZM-1.47852 6V4.5H-2.97852V6H-1.47852ZM-1.47852 12H-2.97852V13.5H-1.47852V12ZM9.16698 12H10.667V10.5H9.16698V12ZM9.16698 19.5H7.66698V21H9.16698V19.5ZM14.834 19.5V21H16.334V19.5H14.834ZM14.834 12V10.5H13.334V12H14.834ZM25.5215 12V13.5H27.0215V12H25.5215ZM25.5215 6H27.0215V4.5H25.5215V6ZM14.834 6H13.334V7.5H14.834V6ZM9.16698 0H14.834V-3H9.16698V0ZM10.667 6V-1.5H7.66698V6H10.667ZM-1.47852 7.5H9.16698V4.5H-1.47852V7.5ZM0.0214844 12V6H-2.97852V12H0.0214844ZM9.16698 10.5H-1.47852V13.5H9.16698V10.5ZM10.667 19.5V12H7.66698V19.5H10.667ZM14.834 18H9.16698V21H14.834V18ZM13.334 12V19.5H16.334V12H13.334ZM25.5215 10.5H14.834V13.5H25.5215V10.5ZM24.0215 6V12H27.0215V6H24.0215ZM14.834 7.5H25.5215V4.5H14.834V7.5ZM13.334 -1.5V6H16.334V-1.5H13.334Z" fill="white"/>
</g>
</g>
</g>
<defs>
<clipPath id="clip0_332_4058">
<rect width="24" height="18" rx="2" fill="white"/>
</clipPath>
</defs>
</svg>
