<svg width="73" height="49" viewBox="0 0 73 49" fill="none" xmlns="http://www.w3.org/2000/svg">
<path d="M7.36547 25.48C4.61569 26.8624 1.30942 26.632 0 26.344V48.5189H36.5H73V10.9368C65.7982 -4.96004 58.1054 1.72123 55.1592 7.04896L50.0852 15.8325C47.8483 20.0563 40.952 27.0927 31.2623 21.4482C21.5726 15.8037 16.204 18.0404 14.7309 19.8643C13.4215 21.1602 10.1152 24.0977 7.36547 25.48Z" fill="url(#paint0_linear_171_6665)"/>
<path d="M0.785156 26.2634C2.06641 26.5504 5.30159 26.7801 7.99223 25.4022C10.6829 24.0242 13.918 21.0961 15.1993 19.8043C16.6407 17.9862 21.8939 15.7566 31.3752 21.3832C40.8565 27.0097 47.6044 19.9957 49.7933 15.7853L54.7581 7.02972C57.641 1.71893 65.1683 -4.94108 72.2153 10.9052" stroke="#089981" stroke-linecap="round"/>
<defs>
<linearGradient id="paint0_linear_171_6665" x1="29.4355" y1="-34.1226" x2="30.0285" y2="57.4729" gradientUnits="userSpaceOnUse">
<stop stop-color="#089981"/>
<stop offset="0.0001" stop-color="#089981"/>
<stop offset="0.847197" stop-color="#089981" stop-opacity="0"/>
</linearGradient>
</defs>
</svg>
