<svg width="73" height="49" viewBox="0 0 73 49" fill="none" xmlns="http://www.w3.org/2000/svg">
<path d="M65.6345 25.48C68.3843 26.8624 71.6906 26.632 73 26.344V48.5189H36.5H0V10.9368C7.2018 -4.96004 14.8946 1.72123 17.8408 7.04896L22.9148 15.8325C25.1517 20.0563 32.048 27.0927 41.7377 21.4482C51.4274 15.8037 56.796 18.0404 58.2691 19.8643C59.5785 21.1602 62.8848 24.0977 65.6345 25.48Z" fill="url(#paint0_linear_171_6714)"/>
<path d="M72.2148 26.2634C70.9336 26.5504 67.6984 26.7801 65.0078 25.4022C62.3171 24.0242 59.082 21.0961 57.8007 19.8043C56.3593 17.9862 51.1061 15.7566 41.6248 21.3832C32.1435 27.0097 25.3956 19.9957 23.2067 15.7853L18.2419 7.02972C15.359 1.71893 7.83165 -4.94108 0.784738 10.9052" stroke="#E42038" stroke-linecap="round"/>
<defs>
<linearGradient id="paint0_linear_171_6714" x1="43.5645" y1="-34.1226" x2="42.9715" y2="57.4729" gradientUnits="userSpaceOnUse">
<stop stop-color="#E42038"/>
<stop offset="0.0001" stop-color="#E42038"/>
<stop offset="0.847197" stop-color="#E42038" stop-opacity="0"/>
</linearGradient>
</defs>
</svg>
