<svg width="20" height="20" viewBox="0 0 20 20" fill="none" xmlns="http://www.w3.org/2000/svg">
<g clip-path="url(#clip0_478_14285)">
<path d="M1.808 6.08006V13.9201C1.808 14.4241 2.072 14.8801 2.512 15.1361L9.304 19.0561C9.736 19.3041 10.272 19.3041 10.704 19.0561L17.496 15.1361C17.928 14.8881 18.2 14.4241 18.2 13.9201V6.08006C18.2 5.57606 17.936 5.12006 17.496 4.86406L10.704 0.944057C10.272 0.696057 9.736 0.696057 9.304 0.944057L2.512 4.86406C2.08 5.11206 1.816 5.57606 1.816 6.08006H1.808Z" fill="#213147"/>
<path d="M11.48 11.5201L10.512 14.1761C10.488 14.2481 10.488 14.3281 10.512 14.4081L12.176 18.9761L14.104 17.8641L11.792 11.5201C11.736 11.3761 11.536 11.3761 11.48 11.5201Z" fill="#12AAFF"/>
<path d="M13.424 7.056C13.368 6.912 13.168 6.912 13.112 7.056L12.144 9.712C12.12 9.784 12.12 9.864 12.144 9.944L14.872 17.424L16.8 16.312L13.424 7.064V7.056Z" fill="#12AAFF"/>
<path d="M10 1.24C10.048 1.24 10.096 1.256 10.136 1.28L17.48 5.52C17.568 5.568 17.616 5.664 17.616 5.76V14.24C17.616 14.336 17.56 14.432 17.48 14.48L10.136 18.72C10.096 18.744 10.048 18.76 10 18.76C9.952 18.76 9.904 18.744 9.864 18.72L2.52 14.48C2.432 14.432 2.384 14.336 2.384 14.24V5.752C2.384 5.656 2.44 5.56 2.52 5.512L9.864 1.272C9.904 1.248 9.952 1.232 10 1.232V1.24ZM10 0C9.736 0 9.48 0.064 9.24 0.2L1.896 4.44C1.424 4.712 1.136 5.208 1.136 5.752V14.232C1.136 14.776 1.424 15.272 1.896 15.544L9.24 19.784C9.472 19.92 9.736 19.984 10 19.984C10.264 19.984 10.52 19.92 10.76 19.784L18.104 15.544C18.576 15.272 18.864 14.776 18.864 14.232V5.752C18.864 5.208 18.576 4.712 18.104 4.44L10.752 0.2C10.52 0.064 10.256 0 9.992 0H10Z" fill="#9DCCED"/>
<path d="M5.136 17.4319L5.816 15.5759L7.176 16.7039L5.904 17.8719L5.136 17.4319Z" fill="#213147"/>
<path d="M9.37601 5.15204H7.51201C7.37601 5.15204 7.24801 5.24004 7.20001 5.36804L3.20801 16.312L5.13601 17.424L9.53601 5.36804C9.57601 5.25604 9.49601 5.14404 9.38401 5.14404L9.37601 5.15204Z" fill="white"/>
<path d="M12.64 5.15204H10.776C10.64 5.15204 10.512 5.24004 10.464 5.36804L5.90401 17.864L7.83201 18.976L12.792 5.36804C12.832 5.25604 12.752 5.14404 12.64 5.14404V5.15204Z" fill="white"/>
</g>
<defs>
<clipPath id="clip0_478_14285">
<rect width="20" height="20" fill="white"/>
</clipPath>
</defs>
</svg>
