<svg width="16" height="16" viewBox="0 0 16 16" fill="none" xmlns="http://www.w3.org/2000/svg">
<rect width="16" height="16" rx="8" fill="#F3BA2F"/>
<g clip-path="url(#clip0_2023_3907)">
<path d="M6.01482 7.20208L7.95683 5.26015L9.89987 7.20311L11.0299 6.07311L7.95683 3L4.88483 6.07209L6.01482 7.20208Z" fill="#131313"/>
<path d="M5.21683 7.99985L4.08685 6.86987L2.95682 7.99991L4.0868 9.12988L5.21683 7.99985Z" fill="#131313"/>
<path d="M6.01482 8.79794L7.95683 10.7399L9.89979 8.797L11.0304 9.92636L11.0299 9.92699L7.95683 13L4.88474 9.92802L4.88316 9.92644L6.01482 8.79794Z" fill="#131313"/>
<path d="M11.8269 9.1304L12.957 8.00037L11.827 6.87039L10.697 8.00042L11.8269 9.1304Z" fill="#131313"/>
<path d="M9.10302 7.99938H9.10349L7.95683 6.85272L7.10943 7.70012H7.10935L7.01205 7.79751L6.8112 7.99836L6.80962 7.99994L6.8112 8.0016L7.95683 9.14723L9.10349 8.00057L9.10404 7.99994L9.10302 7.99938Z" fill="#131313"/>
</g>
<defs>
<clipPath id="clip0_2023_3907">
<rect width="10" height="10" fill="white" transform="translate(3 3)"/>
</clipPath>
</defs>
</svg>
