<svg width="20" height="20" viewBox="0 0 20 20" fill="none" xmlns="http://www.w3.org/2000/svg">
<path d="M10 20C15.5228 20 20 15.5228 20 10C20 4.47715 15.5228 0 10 0C4.47715 0 0 4.47715 0 10C0 15.5228 4.47715 20 10 20Z" fill="#7A57DD"/>
<path d="M9.99805 3.33264V8.25988L14.1623 10.1206L9.99805 3.33264Z" fill="white" fill-opacity="0.602"/>
<path d="M9.99823 3.33264L5.83398 10.1227L10.0003 8.26196V3.33264H9.99823Z" fill="white"/>
<path d="M9.99805 13.316V16.6632L14.1664 10.8981L9.99805 13.316Z" fill="white" fill-opacity="0.602"/>
<path d="M9.99823 16.6632V13.316L5.83398 10.8981L9.99823 16.6632Z" fill="white"/>
<path d="M9.99805 12.5405L14.1623 10.1227L9.99805 8.26196V12.5405Z" fill="white" fill-opacity="0.2"/>
<path d="M5.83398 10.1227L10.0003 12.5405V8.26196L5.83398 10.1227Z" fill="white" fill-opacity="0.602"/>
</svg>
