<svg width="208" height="59" viewBox="0 0 208 59" fill="none" xmlns="http://www.w3.org/2000/svg">
<path d="M73.1001 36.0336H66.3294V-6.10352e-05H73.1001V36.0336Z" fill="white"/>
<path d="M207.595 36.0336L188.087 -6.10352e-05H187.742H179.021H178.677L159.168 36.0336H167.889L183.382 7.91816L190.726 21.4595H180.857L177.07 28.2301H194.513L198.759 36.0336H207.595Z" fill="white"/>
<path fill-rule="evenodd" clip-rule="evenodd" d="M63.0015 44.8697H70.2312C71.2258 44.8697 72.1821 45.061 73.1001 45.4435C74.0182 45.826 74.7449 46.3233 75.2805 46.9353C75.8925 47.6239 76.3516 48.3507 76.6576 49.1157C76.9636 49.9573 77.1166 50.7988 77.1166 51.6404C77.1166 52.4819 76.9636 53.3235 76.6576 54.165C76.3516 54.9301 75.8925 55.6568 75.2805 56.3454C74.7449 56.9574 74.0182 57.4547 73.1001 57.8372C72.1821 58.2198 71.2258 58.411 70.2312 58.411H63.0015V44.8697ZM65.5261 47.5091V55.8864H70.2312C70.7667 55.8864 71.264 55.8099 71.723 55.6569C72.2586 55.5038 72.6793 55.2743 72.9853 54.9683C73.2914 54.6623 73.5591 54.318 73.7886 53.9355C74.0182 53.553 74.2094 53.1705 74.3624 52.7879C74.4389 52.4054 74.4772 52.0229 74.4772 51.6404C74.4772 51.1813 74.4007 50.7223 74.2477 50.2633C74.0947 49.7277 73.8269 49.2687 73.4444 48.8862C73.1384 48.4272 72.6793 48.0829 72.0673 47.8534C71.5318 47.6239 70.9198 47.5091 70.2312 47.5091H65.5261Z" fill="white"/>
<path d="M96.9696 44.8698H109.708V47.3944H99.609V50.3781H108.79V52.9027H99.609V55.8864H109.708V58.4111H96.9696V44.8698Z" fill="white"/>
<path d="M127.265 44.8698H130.938L135.872 49.8043L140.921 44.8698H144.479L137.708 51.6404L144.479 58.4111H140.921L135.872 53.4765L130.938 58.4111H127.265L134.151 51.6404L127.265 44.8698Z" fill="white"/>
<path d="M207.595 52.4438H153.2V50.8372H207.595V52.4438Z" fill="white"/>
<path d="M54.28 52.4438H-6.10352e-05V50.8372H54.28V52.4438Z" fill="white"/>
<path d="M20.3119 13.0823L8.95097 0H-6.10352e-05V36.0337H6.77056V7.80347L16.8692 19.3939L20.3119 13.0823Z" fill="#089981"/>
<path d="M33.3942 -6.10352e-05V28.1154L23.2956 16.5249L19.8528 22.8366L31.3285 36.0336H40.1648V-6.10352e-05H33.3942Z" fill="#F23645"/>
<path d="M130.708 23.1808C136.675 22.7218 141.381 17.6725 141.381 11.5904C141.381 5.27876 136.216 -6.10352e-05 129.79 -6.10352e-05H100.871V6.88536H129.79C132.429 6.88536 134.61 8.95098 134.61 11.5904C134.61 14.2298 132.429 16.4102 129.79 16.4102H114.757L110.97 23.2956H121.872L133.003 36.0336H141.84L130.708 23.1808Z" fill="white"/>
<path d="M107.642 36.0337H100.871V11.1314H107.642V36.0337Z" fill="white"/>
</svg>
