<svg width="20" height="20" viewBox="0 0 20 20" fill="none" xmlns="http://www.w3.org/2000/svg">
<path d="M10 1.66663C10.2041 1.66665 10.4011 1.74159 10.5536 1.87722C10.7062 2.01285 10.8036 2.19975 10.8275 2.40246L10.8333 2.49996V2.54579C12.4853 2.731 14.029 3.45949 15.2222 4.61692C16.4154 5.77436 17.1905 7.29521 17.4258 8.94079L17.4542 9.16663H17.5C17.7124 9.16686 17.9167 9.24819 18.0711 9.394C18.2256 9.53981 18.3185 9.73909 18.331 9.95112C18.3434 10.1632 18.2744 10.3719 18.1381 10.5348C18.0018 10.6977 17.8084 10.8024 17.5975 10.8275L17.5 10.8333H17.4542C17.269 12.4853 16.5405 14.029 15.383 15.2222C14.2256 16.4153 12.7047 17.1904 11.0592 17.4258L10.8333 17.4541V17.5C10.8331 17.7124 10.7518 17.9167 10.606 18.0711C10.4601 18.2255 10.2609 18.3185 10.0488 18.3309C9.8368 18.3434 9.62801 18.2744 9.46514 18.1381C9.30226 18.0017 9.19758 17.8084 9.1725 17.5975L9.16666 17.5V17.4541C7.51469 17.2689 5.97097 16.5404 4.77779 15.383C3.58461 14.2256 2.80952 12.7047 2.57416 11.0591L2.54583 10.8333H2.5C2.2876 10.8331 2.0833 10.7517 1.92886 10.6059C1.77441 10.4601 1.68147 10.2608 1.66902 10.0488C1.65657 9.83676 1.72556 9.62798 1.86188 9.4651C1.99821 9.30222 2.19158 9.19755 2.4025 9.17246L2.5 9.16663H2.54583C2.73104 7.51465 3.45953 5.97093 4.61696 4.77775C5.77439 3.58457 7.29525 2.80948 8.94083 2.57413L9.16666 2.54579V2.49996C9.16666 2.27895 9.25446 2.06698 9.41074 1.9107C9.56702 1.75442 9.77898 1.66663 10 1.66663ZM10 5.83329C8.89493 5.83329 7.83512 6.27228 7.05372 7.05368C6.27232 7.83508 5.83333 8.89489 5.83333 9.99996C5.83333 11.105 6.27232 12.1648 7.05372 12.9462C7.83512 13.7276 8.89493 14.1666 10 14.1666C11.1051 14.1666 12.1649 13.7276 12.9463 12.9462C13.7277 12.1648 14.1667 11.105 14.1667 9.99996C14.1667 8.89489 13.7277 7.83508 12.9463 7.05368C12.1649 6.27228 11.1051 5.83329 10 5.83329ZM10 7.49996C10.663 7.49996 11.2989 7.76335 11.7678 8.23219C12.2366 8.70103 12.5 9.33692 12.5 9.99996C12.5 10.663 12.2366 11.2989 11.7678 11.7677C11.2989 12.2366 10.663 12.5 10 12.5C9.33696 12.5 8.70107 12.2366 8.23223 11.7677C7.76339 11.2989 7.5 10.663 7.5 9.99996C7.5 9.33692 7.76339 8.70103 8.23223 8.23219C8.70107 7.76335 9.33696 7.49996 10 7.49996Z" fill="#9295A5"/>
</svg>
